
<svg class="animated" id="freepik_stories-departing" xmlns="http://www.w3.org/2000/svg" viewBox="0 0 500 500" version="1.1" xmlns:xlink="http://www.w3.org/1999/xlink" xmlns:svgjs="http://svgjs.com/svgjs"><g id="freepik--background-complete--inject-9" class="animable" style="transform-origin: 249.88px 252.176px;"><path d="M91.12,377.5c-9.3.15-22.17.47-31.36.46h-.45v-.46l-.05-11.19v-.5h.5l15.68.07c5.31,0,10.63.13,15.94.18v.25l-.26,11.19Zm0,0-.25-11.19.25.26c-5.22.06-10.45.16-15.68.18l-15.68.06.5-.5,0,11.19-.45-.45c9,0,22.21.29,31.36.45Z" style="fill: rgb(235, 235, 235); transform-origin: 75.32px 371.885px;" id="el1pq4c95glsp" class="animable"></path><path d="M73.63,391.61c-9.31.15-22.17.47-31.37.46h-.45v-.46l-.05-11.19v-.5h.5l15.68.07c5.32,0,10.63.13,16,.18v.25l-.25,11.19Zm0,0-.26-11.19.26.26c-5.23.05-10.46.16-15.69.18l-15.68.06.5-.5,0,11.19-.45-.45c9,0,22.21.29,31.37.45Z" style="fill: rgb(235, 235, 235); transform-origin: 57.85px 385.995px;" id="elra28rnooio" class="animable"></path><path d="M352.74,413.67c-9.31.15-22.17.47-31.37.45h-.45v-.45l-.05-11.19V402h.5l15.69.07c5.31,0,10.62.12,15.94.18v.25l-.25,11.19Zm0,0-.26-11.19.26.26c-5.23.05-10.46.16-15.68.18l-15.69.06.5-.5-.05,11.19-.45-.45c9,0,22.21.29,31.37.45Z" style="fill: rgb(235, 235, 235); transform-origin: 336.935px 408.06px;" id="el5wrkm57srsv" class="animable"></path><path d="M335.24,427.78c-9.3.15-22.17.47-31.36.45h-.45v-.45l0-11.19v-.5h.5l15.68.07c5.31,0,10.63.12,15.94.18v.25l-.26,11.19Zm0,0L335,416.59l.25.26c-5.23,0-10.45.16-15.68.18l-15.68.06.5-.5-.05,11.19-.45-.45c9,0,22.21.29,31.36.45Z" style="fill: rgb(235, 235, 235); transform-origin: 319.49px 422.16px;" id="elgu5v9a9ez9m" class="animable"></path><path d="M317.81,413.67c-9.3.15-22.17.47-31.36.45H286v-.45L286,402.48V402h.5l15.68.07c5.32,0,10.63.12,15.94.18v.25l-.26,11.19Zm0,0-.25-11.19.25.26c-5.22.05-10.45.16-15.68.18l-15.68.06.5-.5-.05,11.19-.45-.45c9,0,22.21.29,31.36.45Z" style="fill: rgb(235, 235, 235); transform-origin: 302.06px 408.06px;" id="elm58i9oydhxb" class="animable"></path><path d="M457.74,391.61c-9.31.15-22.17.47-31.37.46h-.45v-.46l-.05-11.19v-.5h.5l15.69.07c5.31,0,10.62.13,15.94.18v.25l-.25,11.19Zm0,0-.26-11.19.26.26c-5.23.05-10.46.16-15.68.18l-15.69.06.5-.5,0,11.19-.46-.45c9,0,22.21.29,31.37.45Z" style="fill: rgb(235, 235, 235); transform-origin: 441.935px 385.995px;" id="elqgd1q2uu5w" class="animable"></path><path d="M327.28,318.21c-.6,0-.66-1.2,0-1.28,2.82-.36,5.66-2.89,8.48-3.26s5.6-.68,8.11-1.94c4.21-2.11,6.82-6.34,11.17-8.36,7.64-3.56,15.51-2,22.94,1.1a26.15,26.15,0,0,0,14,2.06c4.34-.55,8.57-1.74,12.89-2.36a25.55,25.55,0,0,1,11.57.55c3.88,1.26,7.22,3.69,10.87,5.45,4.81,2.32,9.56,1.93,14.74,2.07,3.73.11,11.53,2.47,11.53,5C453.66,318.92,334.68,318.21,327.28,318.21Z" style="fill: rgb(235, 235, 235); transform-origin: 390.194px 309.843px;" id="el2tu49cipeh4" class="animable"></path><path d="M449.61,161.12c-5.21,0-135.27-.91-172-.91-2.57,0,.68-4.44,2.09-4.75,4.52-1,9.23-1.05,13.82-1.52a45,45,0,0,0,13.16-3.3c3.61-1.52,7.22-3.29,11.14-3.9,7.57-1.19,14.2,2.91,21.3,4.73A16.09,16.09,0,0,0,352,149.7c3.28-2,6.26-4.33,9.69-6.07a53.21,53.21,0,0,1,42.5-1.94,49.14,49.14,0,0,1,9.3,4.76c3.47,2.27,6.46,5.18,9.93,7.43,7.71,5,17.23,3.36,25.63,6.22C449.55,160.25,450.07,161.12,449.61,161.12Z" style="fill: rgb(235, 235, 235); transform-origin: 363.219px 149.646px;" id="elzsd4yzrhsai" class="animable"></path><path d="M186.86,278.2c-6.89,0-122.84.76-130.13.53-.52,0-.81-.79-.29-1,4.6-2.28,9.81-1.82,14.58-3.43,2.81-.95,4.54-2.78,6.49-4.89a13.4,13.4,0,0,1,6-3.94,12.73,12.73,0,0,1,6.57-.21c2.35.57,4.39,1.91,6.64,2.76,5.57,2.1,11,.11,15-4,3.28-3.39,6.51-6.6,11-8.43a14.59,14.59,0,0,1,11.62-.16c4.25,1.93,7.17,5.8,11.17,8.13,4.73,2.77,10.4,2.12,15.63,2.95s9.24,5.24,13.83,7.78a9.83,9.83,0,0,0,5,1.55c1,0,2-.31,3.05-.43,1.58-.2,3.08-.15,4.14,1.16C187.37,276.84,187.31,278.2,186.86,278.2Z" style="fill: rgb(235, 235, 235); transform-origin: 121.721px 266.538px;" id="el7d3mnb84i4w" class="animable"></path><path d="M259.35,128.26c-5,0-89.69.56-95,.39a.41.41,0,0,1-.21-.76c3.35-1.66,7.16-1.33,10.64-2.5a11.52,11.52,0,0,0,4.74-3.57,9.79,9.79,0,0,1,4.4-2.88,9.41,9.41,0,0,1,4.8-.15,40.8,40.8,0,0,1,4.84,2c4.07,1.54,8,.08,10.93-2.93,2.39-2.48,4.75-4.82,8-6.16a10.6,10.6,0,0,1,8.48-.11c3.11,1.4,5.24,4.23,8.16,5.93,3.45,2,7.59,1.55,11.41,2.16s6.75,3.82,10.1,5.67a7,7,0,0,0,3.65,1.13,20.79,20.79,0,0,0,2.22-.31,3.06,3.06,0,0,1,3,.85C259.71,127.27,259.68,128.26,259.35,128.26Z" style="fill: rgb(235, 235, 235); transform-origin: 211.789px 119.721px;" id="elggnpcs0mzpj" class="animable"></path><path d="M369.53,236.44c-5,0-89.69.55-95,.39-.39,0-.59-.58-.21-.77,3.35-1.66,7.16-1.32,10.64-2.5,2.05-.69,3.31-2,4.74-3.57a9.74,9.74,0,0,1,4.4-2.87,9.2,9.2,0,0,1,4.8-.15,40.94,40.94,0,0,1,4.85,2c4.06,1.53,8,.08,10.92-2.93,2.39-2.48,4.75-4.83,8-6.16a10.64,10.64,0,0,1,8.48-.12c3.11,1.41,5.24,4.24,8.16,5.94,3.45,2,7.59,1.54,11.41,2.15s6.75,3.83,10.1,5.68a7.19,7.19,0,0,0,3.65,1.13c.75,0,1.48-.22,2.22-.31a3,3,0,0,1,3,.85C369.89,235.44,369.86,236.44,369.53,236.44Z" style="fill: rgb(235, 235, 235); transform-origin: 321.966px 227.898px;" id="elk5mkt1oe6lj" class="animable"></path><path d="M190.64,101.35H46.9c-.58,0-.8-.61-.22-.89C51.83,98,57.6,98.67,62.93,97c3.14-1,5.09-3,7.3-5.28A15,15,0,0,1,77,87.49a14.19,14.19,0,0,1,7.29-.07c2.6.67,4.83,2.21,7.3,3.21,6.13,2.46,12.18.37,16.69-4.11,3.71-3.7,7.36-7.18,12.35-9.1a16.14,16.14,0,0,1,12.89.09c4.67,2.23,7.82,6.6,12.19,9.27,5.19,3.18,11.49,2.59,17.27,3.63s10.6,3.55,15.63,6.46a10.91,10.91,0,0,0,5.51,1.84c1.13,0,2.26-.29,3.38-.41,1.76-.18,3.42-.1,4.57,1.39C192.36,100.05,194,101.35,190.64,101.35Z" style="fill: rgb(235, 235, 235); transform-origin: 119.532px 88.736px;" id="el5reeivf2x3c" class="animable"></path></g><g id="freepik--Floor--inject-9" class="animable" style="transform-origin: 250px 464.106px;"><path d="M37,464.11c136.46-.62,289.54-.62,426,0-136.46.61-289.54.61-426,0Z" style="fill: rgb(38, 50, 56); transform-origin: 250px 464.106px;" id="elpqc0vd54czp" class="animable"></path></g><g id="freepik--Airplane--inject-9" class="animable" style="transform-origin: 370.56px 101.365px;"><path d="M361.35,122.31c-.5-.58-7.42-5.41-7.94-5.77l1.18-.2S360.92,121.71,361.35,122.31Z" style="fill: rgb(199, 199, 199); transform-origin: 357.38px 119.325px;" id="elklw1g81orh" class="animable"></path><path d="M361.37,122.35h0a0,0,0,0,1,0,0c-.05.12-.53.23-1.05.3h0a4.63,4.63,0,0,1-1.49,0c-.15-.1-5.14-2.6-8.19-4.13a.33.33,0,0,1-.12,0l0,0h0l-.44-.22-1.25-.62-.49-.25,5.13-.88c.3.2,2.63,1.83,4.7,3.32l.21.15.57.41a30,30,0,0,1,2.46,1.89v0Z" style="fill: rgb(199, 199, 199); transform-origin: 354.875px 119.63px;" id="eltbn6uvwo3" class="animable"></path><g id="el73vvf3ov6gp"><g style="opacity: 0.5; transform-origin: 355.075px 120.205px;" class="animable"><path d="M361.37,122.35h0a0,0,0,0,1,0,0c-.05.12-.53.23-1.05.3h0a4.63,4.63,0,0,1-1.49,0c-.15-.1-5.27-2.66-8.31-4.18.5.24,7.06,3.4,8.4,1.89a30,30,0,0,1,2.46,1.89v0Z" style="fill: rgb(199, 199, 199); transform-origin: 355.95px 120.59px;" id="el44itnf3yzz" class="animable"></path><path d="M358.32,120a2.75,2.75,0,0,1-.61.21,3.17,3.17,0,0,1-.87.08l-.43,0-.42-.07a15.93,15.93,0,0,1-1.66-.38c-1.08-.31-2.15-.67-3.2-1.07-.37-.15-.74-.29-1.11-.45l-1.25-.62,2.45.83c1.06.35,2.12.7,3.2,1,.54.15,1.08.29,1.62.39a4,4,0,0,0,1.62.09l.45-.12Z" style="fill: rgb(199, 199, 199); transform-origin: 353.545px 118.997px;" id="elxjratfmy5bi" class="animable"></path></g></g><path d="M429,128h0c0,.69-3.78.91-4.3.76S383,112.38,383,112.38l15.17-6,.43.31.19.13c2.8,1.94,11.14,7.72,18.43,12.81l.43.3.58.4C423.25,123.85,427.63,126.94,429,128Z" style="fill: rgb(199, 199, 199); transform-origin: 406px 117.592px;" id="el11xmzhbj3e6" class="animable"></path><path d="M429,128c-3.69-2.76-27.76-19.43-30.9-21.62l1.92-.76s28,21.33,28.88,22.17A.31.31,0,0,1,429,128Z" style="fill: rgb(199, 199, 199); transform-origin: 413.55px 116.81px;" id="elipuzbec4r8" class="animable"></path><g id="elcd2umq6r4m"><g style="opacity: 0.5; transform-origin: 406px 117.592px;" class="animable"><path d="M429,128h0c0,.69-3.78.91-4.3.76S383,112.38,383,112.38l15.17-6s-3.75,4.29,5.14,10.89c6.07,4.49,12.52,5.43,14.92,3.06C423.25,123.85,427.63,126.94,429,128Z" style="fill: rgb(199, 199, 199); transform-origin: 406px 117.592px;" id="el6o3teb1ss2y" class="animable"></path><path d="M417.62,119.92a6.08,6.08,0,0,1-1.31.56,8.82,8.82,0,0,1-3.79.15,20.5,20.5,0,0,1-6.93-2.75,24.83,24.83,0,0,1-3-2.17,14.71,14.71,0,0,1-2.56-2.78,10.73,10.73,0,0,1-.93-1.65,8.53,8.53,0,0,1-.57-1.82,6.34,6.34,0,0,1,.09-2.78l.19.13a6.74,6.74,0,0,0,.34,2.49,9.32,9.32,0,0,0,1.69,3l.58.66c.2.22.41.42.61.62a16.38,16.38,0,0,0,1.34,1.16,27,27,0,0,0,2.93,2,28.92,28.92,0,0,0,3.15,1.68,17.31,17.31,0,0,0,3.32,1.19,9.21,9.21,0,0,0,1.72.28,7.15,7.15,0,0,0,1.73,0,5.07,5.07,0,0,0,1-.25Z" style="fill: rgb(199, 199, 199); transform-origin: 408.019px 113.724px;" id="el5fdgqvz6r02" class="animable"></path></g></g><path d="M394.68,117.69c-1.17.57-2.44,1-2.53-.16,0-.48.33-1,2.22-1.9.44-.21,1.52-.69,1.83.29S395.12,117.48,394.68,117.69Z" style="fill: rgb(199, 199, 199); transform-origin: 394.197px 116.794px;" id="elbq8br49k1ch" class="animable"></path><path d="M404.24,121.61c-1.17.57-2.44,1-2.53-.16,0-.49.33-1,2.22-1.91.44-.21,1.52-.68,1.83.3S404.68,121.39,404.24,121.61Z" style="fill: rgb(199, 199, 199); transform-origin: 403.757px 120.712px;" id="el110m149cmurp" class="animable"></path><path d="M413.8,125.52c-1.17.57-2.44,1-2.53-.16,0-.48.33-1,2.22-1.91.44-.21,1.52-.68,1.83.3S414.24,125.31,413.8,125.52Z" style="fill: rgb(199, 199, 199); transform-origin: 413.317px 124.622px;" id="el7e5cc35xcse" class="animable"></path><path d="M410.68,115.24c-1.15,2.05-3.77,2.79-5.42,3.45-4.4,1.76-7.59,2.74-9.16-1.25a5.28,5.28,0,0,1-.35-1.44c-.26-3,2.86-4.52,4.44-5.35h0c1.91-1,3.26-1.66,4.27-2.09a7.71,7.71,0,0,1,3.13-.8c.88,0,2.89.19,3.55,3.87A5.27,5.27,0,0,1,410.68,115.24Z" style="fill: rgb(199, 199, 199); transform-origin: 403.504px 113.991px;" id="el59t6an8xd34" class="animable"></path><path d="M410.68,115.24c-1.15,2.05-3.77,2.79-5.42,3.45-4.4,1.76-7.59,2.74-9.16-1.25a5.28,5.28,0,0,1-.35-1.44c.17.27,1.66,2.5,5.6,1.89,4.19-.64,9.19-6.12,3.12-9.33a7.71,7.71,0,0,1,3.13-.8c.88,0,2.89.19,3.55,3.87A5.27,5.27,0,0,1,410.68,115.24Z" style="fill: rgb(199, 199, 199); transform-origin: 403.515px 113.991px;" id="ell6li8n7yaiq" class="animable"></path><path d="M410.73,112.38c0,2.24-1.4,4.06-3.13,4.06s-3.14-1.82-3.14-4.06,1.41-4.06,3.14-4.06S410.73,110.14,410.73,112.38Z" style="fill: rgb(199, 199, 199); transform-origin: 407.595px 112.38px;" id="ellqmzdqj4y5q" class="animable"></path><path d="M410.37,112.38c0,2-1.24,3.59-2.77,3.59s-2.77-1.61-2.77-3.59,1.24-3.59,2.77-3.59S410.37,110.4,410.37,112.38Z" style="fill: rgb(199, 199, 199); transform-origin: 407.6px 112.38px;" id="elee9ohuu8ub9" class="animable"></path><path d="M345.09,111.3l-.73.27-1.63.59-5.66-2.44c-5.47-2.35-11.95-5.11-13.2-5.53l.16,0,.14,0,.19.06.11,0,.43.13.44.15,1.25.41.42.14.4.13.22.08.67.22.45.15,5.82,2,.55.18,2.16.73,3.74,1.27.53.18c.6.2,1.15.38,1.62.55h0l.42.14.19.07.1,0Z" style="fill: rgb(199, 199, 199); transform-origin: 334.48px 108.175px;" id="elscx6pikrno" class="animable"></path><path d="M342.73,112.16l-4.38,1.6s-9.78-4.54-15.61-7.38l-.06,0-.08,0-1.68-.82a14.65,14.65,0,0,1-2.43-1.34c.17-.33,3.8-.41,5.25,0h0l.09,0c1.21.41,7.3,3,12.65,5.29l.12.06.43.18Z" style="fill: rgb(199, 199, 199); transform-origin: 330.61px 108.851px;" id="ell1u8hryqgx8" class="animable"></path><g id="eld1cver2ntj7"><g style="opacity: 0.5; transform-origin: 331.84px 109.645px;" class="animable"><path d="M342.73,112.16l-4.38,1.6s-9.78-4.54-15.61-7.38c1,.41,10.86,4.77,13.3,4.16a1.35,1.35,0,0,0,1-.82Z" style="fill: rgb(199, 199, 199); transform-origin: 332.735px 110.07px;" id="elfqjq76muc74" class="animable"></path><path d="M336.64,109.54a1.6,1.6,0,0,1-.62.47,1.68,1.68,0,0,1-.67.15,4.87,4.87,0,0,1-.66,0c-.44-.05-.87-.13-1.3-.22-1.71-.39-3.37-.92-5-1.47s-3.29-1.15-4.91-1.79c-.28-.11-.57-.21-.85-.33l-1.68-.82,2.61.93c1.65.58,3.28,1.17,4.94,1.71s3.3,1.1,5,1.51c.42.11.84.2,1.27.27a2.32,2.32,0,0,0,1.23-.06,1.44,1.44,0,0,0,.57-.37Z" style="fill: rgb(199, 199, 199); transform-origin: 328.795px 107.851px;" id="el2bnao6d77gg" class="animable"></path></g></g><path d="M354,105.92,343.37,111s.11-9.11.19-15.66v-1.2c0-2.24.06-4,.07-4.87,0-2.63.32-3.17,1-2.74a33.08,33.08,0,0,1,4.73,4.33c.77,1,2.46,7,3.56,11.08l0,.1c.06.24.13.47.19.7C353.66,104.61,354,105.92,354,105.92Z" style="fill: rgb(199, 199, 199); transform-origin: 348.685px 98.6987px;" id="elu1or2ergzuh" class="animable"></path><g id="elw8q7algd4a"><g style="opacity: 0.5; transform-origin: 348.685px 102.545px;" class="animable"><path d="M354,105.92,343.37,111s.11-9.11.19-15.66c1.56,3.49,4.65,8.26,9.61,7.4C353.66,104.61,354,105.92,354,105.92Z" style="fill: rgb(199, 199, 199); transform-origin: 348.685px 103.17px;" id="el0alhp8ecol2r" class="animable"></path><path d="M353,102.07a5.24,5.24,0,0,1-3.18-.44,8.31,8.31,0,0,1-1.63-1,15.21,15.21,0,0,1-1.4-1.25,17.38,17.38,0,0,1-2.25-3,16.56,16.56,0,0,1-.95-1.76v-.53c.44.69.9,1.35,1.37,2,.36.49.72,1,1.1,1.44s.77.93,1.2,1.35a11.62,11.62,0,0,0,2.78,2.21A6.09,6.09,0,0,0,353,102Z" style="fill: rgb(199, 199, 199); transform-origin: 348.295px 98.1195px;" id="elywpwlw2hbbd" class="animable"></path></g></g><path d="M336,116.6c-1.1-2.73,3.55-5.22,8.82-7.58S402,83.74,409.52,81.7s16.3.75,17.78,5c2.23,6.46-7.14,11.86-40.8,25.82-4.41,1.83-24.13,6.56-35.23,6.6C339.42,119.21,336.48,118,336,116.6Z" style="fill: rgb(199, 199, 199); transform-origin: 381.724px 100.071px;" id="ell6d2n4pyu0m" class="animable"></path><g id="elahzjr7i2oh"><path d="M386.5,112.57c-4.41,1.83-24.13,6.56-35.23,6.6-11.85,0-14.78-1.22-15.32-2.57s.42-2.79,2.26-4.1a1.91,1.91,0,0,0,.14.8c.49,1.23,3.15,2.37,13.91,2.33,10.06,0,24.54-8.18,28.54-9.84,30.54-12.66,42.46-13.71,40.44-19.57-.87-2.55-4.57-4.52-8.94-5.06,6.77-.81,13.7,1.81,15,5.59C429.53,93.21,420.16,98.61,386.5,112.57Z" style="fill: rgb(199, 199, 199); opacity: 0.2; transform-origin: 381.706px 100.091px;" class="animable"></path></g><polygon points="352.42 107.58 353.61 107.07 353.61 108.82 352.42 109.34 352.42 107.58" style="fill: rgb(199, 199, 199); transform-origin: 353.015px 108.205px;" id="elnf5vgqm0vh" class="animable"></polygon><polygon points="354.59 106.64 355.87 106.09 355.87 107.85 354.59 108.4 354.59 106.64" style="fill: rgb(199, 199, 199); transform-origin: 355.23px 107.245px;" id="elw01d2nowx2h" class="animable"></polygon><polygon points="356.85 105.66 358.13 105.11 358.13 106.87 356.85 107.42 356.85 105.66" style="fill: rgb(199, 199, 199); transform-origin: 357.49px 106.265px;" id="el2b527k5hqw7" class="animable"></polygon><polygon points="359.11 104.69 360.39 104.14 360.39 105.89 359.11 106.44 359.11 104.69" style="fill: rgb(199, 199, 199); transform-origin: 359.75px 105.29px;" id="elkiqe4ftmo" class="animable"></polygon><polygon points="361.37 103.71 362.64 103.16 362.64 104.91 361.37 105.46 361.37 103.71" style="fill: rgb(199, 199, 199); transform-origin: 362.005px 104.31px;" id="el1mvrksiakna" class="animable"></polygon><polygon points="363.63 102.73 364.9 102.18 364.9 103.94 363.63 104.49 363.63 102.73" style="fill: rgb(199, 199, 199); transform-origin: 364.265px 103.335px;" id="el02pdh11t6j83" class="animable"></polygon><polygon points="365.89 101.75 367.16 101.2 367.16 102.96 365.89 103.51 365.89 101.75" style="fill: rgb(199, 199, 199); transform-origin: 366.525px 102.355px;" id="elcf4jaqm7pl6" class="animable"></polygon><polygon points="368.15 100.78 369.42 100.22 369.42 101.98 368.15 102.53 368.15 100.78" style="fill: rgb(199, 199, 199); transform-origin: 368.785px 101.375px;" id="elsbjvf3008mq" class="animable"></polygon><polygon points="370.41 99.8 371.68 99.25 371.68 101 370.41 101.55 370.41 99.8" style="fill: rgb(199, 199, 199); transform-origin: 371.045px 100.4px;" id="elavwftfombzr" class="animable"></polygon><polygon points="372.67 98.82 373.94 98.27 373.94 100.02 372.67 100.58 372.67 98.82" style="fill: rgb(199, 199, 199); transform-origin: 373.305px 99.425px;" id="el3vdlcmc0nti" class="animable"></polygon><polygon points="374.92 97.84 376.2 97.29 376.2 99.05 374.92 99.6 374.92 97.84" style="fill: rgb(199, 199, 199); transform-origin: 375.56px 98.445px;" id="el55qfd13er7w" class="animable"></polygon><polygon points="377.18 96.86 378.46 96.31 378.46 98.07 377.18 98.62 377.18 96.86" style="fill: rgb(199, 199, 199); transform-origin: 377.82px 97.465px;" id="elfh79jt8rz4e" class="animable"></polygon><polygon points="379.44 95.89 380.72 95.33 380.72 97.09 379.44 97.64 379.44 95.89" style="fill: rgb(199, 199, 199); transform-origin: 380.08px 96.485px;" id="elu03eiqkdfh" class="animable"></polygon><polygon points="381.7 94.91 382.98 94.36 382.98 96.11 381.7 96.66 381.7 94.91" style="fill: rgb(199, 199, 199); transform-origin: 382.34px 95.51px;" id="el9bny2lvbecl" class="animable"></polygon><polygon points="383.96 93.93 385.23 93.38 385.23 95.14 383.96 95.69 383.96 93.93" style="fill: rgb(199, 199, 199); transform-origin: 384.595px 94.535px;" id="el2y79t2affok" class="animable"></polygon><polygon points="386.22 92.95 387.49 92.4 387.49 94.16 386.22 94.71 386.22 92.95" style="fill: rgb(199, 199, 199); transform-origin: 386.855px 93.555px;" id="elbqyir2i44nm" class="animable"></polygon><polygon points="388.48 91.98 389.75 91.42 389.75 93.18 388.48 93.73 388.48 91.98" style="fill: rgb(199, 199, 199); transform-origin: 389.115px 92.575px;" id="eltdm2jylfwhs" class="animable"></polygon><polygon points="390.74 91 392.01 90.45 392.01 92.2 390.74 92.75 390.74 91" style="fill: rgb(199, 199, 199); transform-origin: 391.375px 91.6px;" id="elglbnwkox23" class="animable"></polygon><polygon points="393 90.02 394.27 89.47 394.27 91.22 393 91.78 393 90.02" style="fill: rgb(199, 199, 199); transform-origin: 393.635px 90.625px;" id="elevj88u99fnc" class="animable"></polygon><polygon points="395.25 89.04 396.53 88.49 396.53 90.25 395.25 90.8 395.25 89.04" style="fill: rgb(199, 199, 199); transform-origin: 395.89px 89.645px;" id="el5kdy65uikqg" class="animable"></polygon><polygon points="397.51 88.06 398.79 87.51 398.79 89.27 397.51 89.82 397.51 88.06" style="fill: rgb(199, 199, 199); transform-origin: 398.15px 88.665px;" id="el75ckhe4b7x4" class="animable"></polygon><polygon points="401.05 86.53 401.05 88.29 399.77 88.84 399.77 87.09 401.05 86.53" style="fill: rgb(199, 199, 199); transform-origin: 400.41px 87.685px;" id="elrcyrmoi04re" class="animable"></polygon><polygon points="403.31 85.56 403.31 87.31 402.03 87.86 402.03 86.11 403.31 85.56" style="fill: rgb(199, 199, 199); transform-origin: 402.67px 86.71px;" id="elpket5pndzor" class="animable"></polygon><polygon points="405.56 84.58 405.56 86.33 404.29 86.89 404.29 85.13 405.56 84.58" style="fill: rgb(199, 199, 199); transform-origin: 404.925px 85.735px;" id="eldcc87komoq" class="animable"></polygon><polygon points="407.82 83.6 407.82 85.36 406.55 85.91 406.55 84.15 407.82 83.6" style="fill: rgb(199, 199, 199); transform-origin: 407.185px 84.755px;" id="elqzmznnroh6d" class="animable"></polygon><path d="M413.73,82.88a6.27,6.27,0,0,1,2.37-1.1V83Z" style="fill: rgb(199, 199, 199); transform-origin: 414.915px 82.39px;" id="elhrz58yadoz" class="animable"></path><path d="M418.87,81.5v1.62c-.6-.06-1.19-.09-1.79-.12V81.59A8.92,8.92,0,0,1,418.87,81.5Z" style="fill: rgb(199, 199, 199); transform-origin: 417.975px 82.3043px;" id="eld5n0hm0din" class="animable"></path><path d="M424.55,83.78c-.5,0-1-.1-1.42-.15s-.9-.14-1.35-.18c-.65-.1-1.29-.17-1.93-.23V81.61a9.23,9.23,0,0,1,3.56,1.27,4.66,4.66,0,0,1,.59.43A6.19,6.19,0,0,1,424.55,83.78Z" style="fill: rgb(199, 199, 199); transform-origin: 422.2px 82.695px;" id="el06ejjcqd0bxs" class="animable"></path><path d="M384,98.08l-15,7.21s-23.8-12.76-40.88-22.08l0,0h0c-9.12-5-16.08-8.85-16-9,.29-.39,4.87-.34,6.68-.09a3.39,3.39,0,0,1,.52.09c.77.21,27.7,10.19,46.55,17.18Z" style="fill: rgb(199, 199, 199); transform-origin: 348.06px 89.6074px;" id="eloqsf2wj3hrh" class="animable"></path><g id="elsy594v0492e"><g style="opacity: 0.5; transform-origin: 354.565px 93.41px;" class="animable"><path d="M384,98.08l-15,7.21s-23.8-12.76-40.88-22.08c1.34.67,31.95,16.1,35.95,13.78,1.51-.87,1.91-3.13,1.8-5.62Z" style="fill: rgb(199, 199, 199); transform-origin: 356.06px 94.25px;" id="elpm9ovirq9x" class="animable"></path><path d="M330.32,84.41h0l2,.86q6.81,3,13.73,5.73c2.31.9,4.64,1.77,7,2.59,1.18.4,2.36.79,3.55,1.15a37.25,37.25,0,0,0,3.63,1,10,10,0,0,0,1.92.23,2.86,2.86,0,0,0,.55-.07,1.93,1.93,0,0,0,.5-.21A3.85,3.85,0,0,0,364,95a4.73,4.73,0,0,0,1-1.67,8.2,8.2,0,0,0,.44-1.87,2.48,2.48,0,0,0,0-.27l-.46-.17-.06.37a5.5,5.5,0,0,1-1.45,3.14,3.06,3.06,0,0,1-.68.47,1.81,1.81,0,0,1-.35.15,2.17,2.17,0,0,1-.38,0,9.28,9.28,0,0,1-1.76-.27,67.34,67.34,0,0,1-7-2.23c-2.32-.82-4.63-1.71-6.94-2.61-4.61-1.79-9.2-3.66-13.79-5.51l-7.44-3h0Z" style="fill: rgb(199, 199, 199); transform-origin: 345.287px 88.75px;" id="el8bjxj5vo8g6" class="animable"></path></g></g><path d="M386.14,97.09l-4.44,2.14c-11.38-4.76-58.69-23.47-62.65-25l-.12,0-.1,0h0a3.39,3.39,0,0,1,.52.09C320.5,74.51,386.14,97.09,386.14,97.09Z" style="fill: rgb(199, 199, 199); transform-origin: 352.485px 86.73px;" id="el5a8g1nn2yjq" class="animable"></path><path d="M354.08,97.44c-1.46.71-3.06,1.27-3.17-.2-.05-.6.42-1.25,2.77-2.38.56-.27,1.9-.86,2.3.36S354.63,97.17,354.08,97.44Z" style="fill: rgb(199, 199, 199); transform-origin: 353.473px 96.3205px;" id="elhqxe1pujevg" class="animable"></path><path d="M341.41,91c-1.46.71-3.06,1.27-3.17-.2-.05-.6.42-1.25,2.77-2.38.56-.27,1.91-.86,2.3.36S342,90.77,341.41,91Z" style="fill: rgb(199, 199, 199); transform-origin: 340.802px 89.8805px;" id="els3m50prafrr" class="animable"></path><path d="M328.7,84.56c-1.36.67-2.85,1.19-2.95-.18-.05-.57.39-1.17,2.58-2.22.52-.25,1.77-.8,2.14.34S329.21,84.31,328.7,84.56Z" style="fill: rgb(199, 199, 199); transform-origin: 328.135px 83.523px;" id="el9u7od7kv8i5" class="animable"></path><path d="M373,96c-1.15,2.05-3.76,2.79-5.42,3.45-4.39,1.76-7.58,2.74-9.15-1.25a5,5,0,0,1-.36-1.44c-.25-3,2.86-4.52,4.45-5.35h0c1.91-1,3.26-1.66,4.27-2.09a7.74,7.74,0,0,1,3.13-.8c.89,0,2.9.19,3.55,3.87A5.22,5.22,0,0,1,373,96Z" style="fill: rgb(199, 199, 199); transform-origin: 365.83px 94.7512px;" id="elocbxx35y7im" class="animable"></path><path d="M373,96c-1.15,2.05-3.76,2.79-5.42,3.45-4.39,1.76-7.58,2.74-9.15-1.25a5,5,0,0,1-.36-1.44c.17.27,1.66,2.5,5.6,1.89,4.2-.64,9.2-6.12,3.12-9.33a7.74,7.74,0,0,1,3.13-.8c.89,0,2.9.19,3.55,3.87A5.22,5.22,0,0,1,373,96Z" style="fill: rgb(199, 199, 199); transform-origin: 365.837px 94.7512px;" id="elrj8msjesdfs" class="animable"></path><path d="M373,93.13c0,2.24-1.4,4.06-3.13,4.06s-3.13-1.82-3.13-4.06,1.4-4.06,3.13-4.06S373,90.89,373,93.13Z" style="fill: rgb(199, 199, 199); transform-origin: 369.87px 93.13px;" id="elzja9akmyyjd" class="animable"></path><path d="M372.67,93.13c0,2-1.24,3.59-2.77,3.59s-2.77-1.61-2.77-3.59,1.24-3.59,2.77-3.59S372.67,91.15,372.67,93.13Z" style="fill: rgb(199, 199, 199); transform-origin: 369.9px 93.13px;" id="elqpu2mtbrr4" class="animable"></path><path d="M325.34,104.66l-.44-.15Z" style="fill: rgb(199, 199, 199); transform-origin: 325.12px 104.585px;" id="el9vu8u1o6p7v" class="animable"></path></g><g id="freepik--Window--inject-9" class="animable" style="transform-origin: 250px 179.135px;"><g id="eltdi7n78whz9"><g style="opacity: 0.3; transform-origin: 250px 174.715px;" class="animable"><polygon points="192.51 0 41.65 161.76 41.65 122.13 155.54 0 192.51 0" style="fill: rgb(235, 235, 235); transform-origin: 117.08px 80.88px;" id="elin9x8ao5tsh" class="animable"></polygon><polygon points="458.35 222.25 458.35 261.89 376.69 349.43 339.73 349.43 458.35 222.25" style="fill: rgb(235, 235, 235); transform-origin: 399.04px 285.84px;" id="elh5mbmvqtikw" class="animable"></polygon><polygon points="112.43 0 41.65 75.9 41.65 62.91 100.33 0 112.43 0" style="fill: rgb(235, 235, 235); transform-origin: 77.04px 37.95px;" id="elf7w2dxov5m6" class="animable"></polygon><polygon points="458.35 78.83 458.35 91.79 218.08 349.43 205.97 349.43 458.35 78.83" style="fill: rgb(235, 235, 235); transform-origin: 332.16px 214.13px;" id="elvx7hezkg3ak" class="animable"></polygon><polygon points="458.35 282.92 458.35 295.89 408.42 349.43 396.31 349.43 458.35 282.92" style="fill: rgb(235, 235, 235); transform-origin: 427.33px 316.175px;" id="elpafyro98nyl" class="animable"></polygon><polygon points="405.99 0 80.09 349.43 67.98 349.43 393.88 0 405.99 0" style="fill: rgb(235, 235, 235); transform-origin: 236.985px 174.715px;" id="el6zb92wr5k73" class="animable"></polygon><polygon points="281.3 0 41.65 256.97 41.65 253.94 278.49 0 281.3 0" style="fill: rgb(235, 235, 235); transform-origin: 161.475px 128.485px;" id="elp5nuh4413gn" class="animable"></polygon><polygon points="458.35 111.75 458.35 114.78 239.5 349.43 236.68 349.43 458.35 111.75" style="fill: rgb(235, 235, 235); transform-origin: 347.515px 230.59px;" id="elea7irfmgi5" class="animable"></polygon></g></g><rect x="41.65" y="96" width="416.7" height="2.81" style="fill: rgb(38, 50, 56); transform-origin: 250px 97.405px;" id="elddyxgwb1y3" class="animable"></rect><g id="elc4bsgx9u8be"><rect x="2.39" y="173.5" width="349.43" height="2.43" style="fill: rgb(38, 50, 56); transform-origin: 177.105px 174.715px; transform: rotate(90deg);" class="animable"></rect></g><g id="eljl3er5bgnuk"><rect x="148.18" y="173.5" width="349.43" height="2.43" style="fill: rgb(38, 50, 56); transform-origin: 322.895px 174.715px; transform: rotate(90deg);" class="animable"></rect></g><rect x="41.65" y="349.43" width="416.7" height="8.84" style="fill: rgb(55, 71, 79); transform-origin: 250px 353.85px;" id="el3bqcn5v8z76" class="animable"></rect></g><g id="freepik--Suitcase--inject-9" class="animable" style="transform-origin: 184px 353.675px;"><rect x="153.77" y="331.41" width="60.47" height="112.54" style="fill: rgb(255, 0, 0); transform-origin: 184.005px 387.68px;" id="elejscnw6mhda" class="animable"></rect><g id="elu25lbo8fvbs"><g style="opacity: 0.1; transform-origin: 184px 387.68px;" class="animable"><rect x="153.78" y="344.78" width="60.47" height="0.68" style="fill: rgb(2, 1, 0); transform-origin: 184.015px 345.12px;" id="elv09fcxpw06c" class="animable"></rect><rect x="153.77" y="356.94" width="60.47" height="0.68" style="fill: rgb(2, 1, 0); transform-origin: 184.005px 357.28px;" id="el6hluvzpdkrf" class="animable"></rect><rect x="153.77" y="369.1" width="60.47" height="0.68" style="fill: rgb(2, 1, 0); transform-origin: 184.005px 369.44px;" id="el64u99h75t93" class="animable"></rect><rect x="153.77" y="381.26" width="60.47" height="0.68" style="fill: rgb(2, 1, 0); transform-origin: 184.005px 381.6px;" id="elom5o5whf9dd" class="animable"></rect><rect x="153.76" y="393.42" width="60.47" height="0.68" style="fill: rgb(2, 1, 0); transform-origin: 183.995px 393.76px;" id="elqfgvdcwth18" class="animable"></rect><rect x="153.76" y="405.58" width="60.47" height="0.68" style="fill: rgb(2, 1, 0); transform-origin: 183.995px 405.92px;" id="el57wdn097vax" class="animable"></rect><rect x="153.76" y="417.74" width="60.47" height="0.68" style="fill: rgb(2, 1, 0); transform-origin: 183.995px 418.08px;" id="elfodwpilqjb9" class="animable"></rect><rect x="153.75" y="429.9" width="60.47" height="0.68" style="fill: rgb(2, 1, 0); transform-origin: 183.985px 430.24px;" id="elm9or0bc3ptf" class="animable"></rect></g></g><rect x="181.67" y="331.41" width="4.66" height="112.54" style="fill: rgb(38, 50, 56); transform-origin: 184px 387.68px;" id="el965mfrzvvje" class="animable"></rect><rect x="192.19" y="370.68" width="5.04" height="34" style="fill: rgb(38, 50, 56); transform-origin: 194.71px 387.68px;" id="elqar3krhg9bd" class="animable"></rect><polygon points="214.22 435.53 199.7 435.53 193.88 443.95 214.22 443.96 214.22 435.53" style="fill: rgb(38, 50, 56); transform-origin: 204.05px 439.745px;" id="eln9gflldq04" class="animable"></polygon><polygon points="153.75 435.52 168.28 435.52 174.08 443.95 153.75 443.94 153.75 435.52" style="fill: rgb(38, 50, 56); transform-origin: 163.915px 439.735px;" id="elznokeq3g07i" class="animable"></polygon><polygon points="203.93 454.06 209.3 454.06 212.87 443.96 201.26 443.95 204.58 449.01 203.93 454.06" style="fill: rgb(38, 50, 56); transform-origin: 207.065px 449.005px;" id="elmelbyl770tt" class="animable"></polygon><path d="M198.94,457.12a7.41,7.41,0,1,0,7.41-7.4A7.41,7.41,0,0,0,198.94,457.12Z" style="fill: rgb(55, 71, 79); transform-origin: 206.35px 457.13px;" id="el2ytm8xy5vzj" class="animable"></path><path d="M202.3,457.12a4.05,4.05,0,1,0,4-4A4,4,0,0,0,202.3,457.12Z" style="fill: rgb(219, 219, 219); transform-origin: 206.35px 457.17px;" id="elka4zpf9m4k9" class="animable"></path><path d="M206.27,454.67c0,.58.07,1.06.15,1.06s.16-.48.16-1.06-.07-1.05-.16-1.05S206.27,454.09,206.27,454.67Z" style="fill: rgb(38, 50, 56); transform-origin: 206.425px 454.675px;" id="el03ig1zhiam9f" class="animable"></path><path d="M208,455.33c-.41.41-.69.8-.63.86s.44-.23.85-.64.7-.79.64-.85S208.43,454.92,208,455.33Z" style="fill: rgb(38, 50, 56); transform-origin: 208.115px 455.445px;" id="elnygs1nku4i" class="animable"></path><path d="M208.8,457c-.58,0-1.05.07-1.05.16s.47.16,1.05.16,1-.07,1-.16S209.38,457,208.8,457Z" style="fill: rgb(38, 50, 56); transform-origin: 208.775px 457.16px;" id="elpribkdeskj" class="animable"></path><path d="M208.14,458.8c-.41-.41-.8-.69-.86-.63s.23.44.64.85.79.7.85.64S208.55,459.21,208.14,458.8Z" style="fill: rgb(38, 50, 56); transform-origin: 208.025px 458.915px;" id="el1ttqtj9ea51" class="animable"></path><path d="M206.43,459.58c0-.59-.07-1.06-.16-1.06s-.15.47-.15,1.06.07,1.05.15,1.05S206.43,460.16,206.43,459.58Z" style="fill: rgb(38, 50, 56); transform-origin: 206.275px 459.575px;" id="eltyxnepdm1b9" class="animable"></path><path d="M204.67,458.92c.41-.42.7-.8.64-.86s-.45.22-.86.63-.7.8-.63.86S204.26,459.33,204.67,458.92Z" style="fill: rgb(38, 50, 56); transform-origin: 204.564px 458.805px;" id="el49gyedt41ay" class="animable"></path><path d="M203.89,457.21c.59,0,1.06-.07,1.06-.16s-.47-.16-1.06-.16-1,.07-1,.16S203.31,457.21,203.89,457.21Z" style="fill: rgb(38, 50, 56); transform-origin: 203.92px 457.05px;" id="elkaozmsjca0g" class="animable"></path><path d="M204.56,455.45c.41.41.79.69.85.63s-.22-.44-.63-.85-.8-.7-.86-.64S204.14,455,204.56,455.45Z" style="fill: rgb(38, 50, 56); transform-origin: 204.665px 455.335px;" id="elkz1xnm02pz9" class="animable"></path><polygon points="164.04 454.05 158.66 454.05 155.1 443.94 166.71 443.94 163.38 449 164.04 454.05" style="fill: rgb(38, 50, 56); transform-origin: 160.905px 448.995px;" id="el8bcjy9ub7zc" class="animable"></polygon><path d="M169,457.12a7.41,7.41,0,1,1-7.4-7.41A7.4,7.4,0,0,1,169,457.12Z" style="fill: rgb(55, 71, 79); transform-origin: 161.59px 457.12px;" id="el3j91aoagdli" class="animable"></path><path d="M165.66,457.11a4,4,0,1,1-4-4.05A4,4,0,0,1,165.66,457.11Z" style="fill: rgb(219, 219, 219); transform-origin: 161.66px 457.06px;" id="elf67tbyck8r" class="animable"></path><path d="M161.7,454.66c0,.58-.07,1-.16,1s-.15-.47-.15-1,.07-1.05.15-1.05S161.7,454.08,161.7,454.66Z" style="fill: rgb(38, 50, 56); transform-origin: 161.545px 454.635px;" id="elp63gn33ywj" class="animable"></path><path d="M159.94,455.32c.41.41.7.8.63.86s-.44-.23-.85-.64-.7-.79-.63-.85S159.53,454.91,159.94,455.32Z" style="fill: rgb(38, 50, 56); transform-origin: 159.83px 455.435px;" id="elvrgge7tjq8s" class="animable"></path><path d="M159.16,457c.59,0,1.06.07,1.06.16s-.47.15-1.06.15-1-.07-1-.15S158.58,457,159.16,457Z" style="fill: rgb(38, 50, 56); transform-origin: 159.19px 457.155px;" id="elf9112u9qrha" class="animable"></path><path d="M159.82,458.79c.41-.41.8-.7.86-.64s-.22.45-.64.86-.79.7-.85.63S159.41,459.2,159.82,458.79Z" style="fill: rgb(38, 50, 56); transform-origin: 159.935px 458.896px;" id="elxel9k208otd" class="animable"></path><path d="M161.53,459.57c0-.59.07-1.06.16-1.06s.16.47.16,1.06-.07,1.05-.16,1.05S161.53,460.15,161.53,459.57Z" style="fill: rgb(38, 50, 56); transform-origin: 161.69px 459.565px;" id="el16c4yduunvz" class="animable"></path><path d="M163.29,458.91c-.41-.42-.69-.8-.63-.86s.44.22.85.63.7.8.64.86S163.7,459.32,163.29,458.91Z" style="fill: rgb(38, 50, 56); transform-origin: 163.405px 458.795px;" id="elf9iahqkrrz6" class="animable"></path><path d="M164.07,457.2c-.58,0-1-.07-1-.16s.47-.16,1-.16,1.05.07,1.05.16S164.65,457.2,164.07,457.2Z" style="fill: rgb(38, 50, 56); transform-origin: 164.095px 457.04px;" id="el2dea26gxfgl" class="animable"></path><path d="M163.41,455.44c-.41.41-.8.69-.86.63s.23-.44.64-.85.79-.7.85-.64S163.82,455,163.41,455.44Z" style="fill: rgb(38, 50, 56); transform-origin: 163.295px 455.325px;" id="el7v4bupqzmnd" class="animable"></path><rect x="187.77" y="326.34" width="10.1" height="5.07" style="fill: rgb(38, 50, 56); transform-origin: 192.82px 328.875px;" id="elxze8xqm4l3" class="animable"></rect><rect x="207.14" y="244.1" width="4.6" height="87.38" style="fill: rgb(199, 199, 199); transform-origin: 209.44px 287.79px;" id="eluhio0eiyls" class="animable"></rect><rect x="206.18" y="242.81" width="6.54" height="11.01" style="fill: rgb(38, 50, 56); transform-origin: 209.45px 248.315px;" id="elxbm043047ta" class="animable"></rect></g><g id="freepik--Plant--inject-9" class="animable" style="transform-origin: 414.206px 399.905px;"><path d="M412.91,359.16a41.4,41.4,0,0,1-.8,15.95,43.78,43.78,0,0,1-2.45,7c-1.26,2.92-2.59,5.77-2.27,9,.31.21-.75.17-.78-.14-8.53-4.85-19.47-5.74-26-13.68-3.11-3.76-4.68-8.53-5.42-13.29-.81-5.19-1-10.94.3-16.05,1.13-4.33,3.66-8.5,7.72-10.62s9.7-2,14.11-.63C406.83,339.66,411.56,349.94,412.91,359.16Z" style="fill: rgb(255, 0, 0); transform-origin: 393.943px 363.47px;" id="elx7xo2qrsux" class="animable"></path><path d="M417.29,422.3q-1.74-5.82-3.52-11.63c-2.34-7.58-4.77-15.13-7.47-22.6q-2.42-6.7-5.1-13.28a76.92,76.92,0,0,1,1-8.24c.71-3.31,1.75-6.5,2.71-9.74.06-.2-.26-.3-.34-.11-1.92,4.45-4.42,10.16-4.48,15.44q-3.12-7.44-6.7-14.67a62.5,62.5,0,0,1,.37-12.22.15.15,0,0,0-.29-.06,43.19,43.19,0,0,0-.83,10.79c-1.83-3.62-3.76-7.2-5.82-10.72-.19-.32-.62,0-.46.32q4.8,9.26,9,18.86A41.19,41.19,0,0,0,382,356.69c-.21-.07-.37.24-.15.33a48.57,48.57,0,0,1,14.46,9.57q3,7,5.73,14.14c-5.33-5.23-12.64-8.67-19.7-10.52-.24-.06-.3.31-.07.38,8.17,2.46,14.52,7.09,20.74,12.66q1.08,2.88,2.13,5.77,3.94,11,7.52,22.06,1.72,5.31,3.39,10.65c1.19,3.82,2.12,7.86,3.67,11.55.15.36.79.27.71-.15A111.3,111.3,0,0,0,417.29,422.3Z" style="fill: rgb(38, 50, 56); transform-origin: 401.091px 389.299px;" id="el6qtf597cges" class="animable"></path><path d="M403.14,351.7a21.41,21.41,0,0,0-3.07,7.65c0,.07.1.12.12,0a66.35,66.35,0,0,1,3.33-7.52C403.65,351.63,403.29,351.48,403.14,351.7Z" style="fill: rgb(38, 50, 56); transform-origin: 401.809px 355.507px;" id="elzvrs8xmv2g" class="animable"></path><path d="M387.93,369.47a22.4,22.4,0,0,0-7.66-2.58c-.06,0-.11.09,0,.12,1.23.51,2.53.87,3.77,1.35s2.47,1.06,3.74,1.5A.22.22,0,0,0,387.93,369.47Z" style="fill: rgb(38, 50, 56); transform-origin: 384.108px 368.375px;" id="elt0buj0colyk" class="animable"></path><path d="M383.64,348.09a15.23,15.23,0,0,0-2.46-1.52.13.13,0,0,0-.14.22,14.63,14.63,0,0,0,2.43,1.57C383.62,348.46,383.8,348.19,383.64,348.09Z" style="fill: rgb(38, 50, 56); transform-origin: 382.341px 347.466px;" id="elpaziiqj48xb" class="animable"></path><path d="M441.66,388.13c-6.14,1.82-12.31,3.51-18.45,5.31-.54.16-10.92-19.74-7.17-30a33.5,33.5,0,0,1,20.88-19.81c4.39-1.49,9.78-2.74,14.41-1.72,4.12.92,7,4.29,8.37,8.16,1.82,5.27,1.22,11.55.22,16.92a29.55,29.55,0,0,1-6,13.82C450.62,384.69,446.45,386.71,441.66,388.13Z" style="fill: rgb(255, 0, 0); transform-origin: 438.049px 367.49px;" id="elqka1dkfobl" class="animable"></path><path d="M450.57,369.22a82,82,0,0,1-12,4.74,50.92,50.92,0,0,0-8,2.91c2.59-5.78,5.44-11.44,8.46-17.05,4-1.15,8.14-2.94,11.13-5.75a.17.17,0,1,0-.22-.26c-3.27,2.31-6.88,3.7-10.5,5.26q1.22-2.25,2.48-4.52a.38.38,0,0,0-.63-.43,129.59,129.59,0,0,0-8.72,14.66,66.92,66.92,0,0,1-.64-13.43.09.09,0,0,0-.17,0,44.59,44.59,0,0,0,.15,14.76c-2.16,4.3-4.12,8.7-5.88,13.16-.7-2.68-1.61-5.32-2.22-8a36.46,36.46,0,0,1-.88-11.82.09.09,0,1,0-.18,0,41.72,41.72,0,0,0,2.57,21.7c-1,2.69-2,5.38-2.9,8.08a161.3,161.3,0,0,0-8.15,42.62.26.26,0,0,0,.52,0,211.31,211.31,0,0,1,9.15-42.12c1.78-5.36,3.83-10.56,6.08-15.66,3.63-1.07,7.25-2.52,10.81-3.76a33.94,33.94,0,0,0,10-4.88A.13.13,0,0,0,450.57,369.22Z" style="fill: rgb(38, 50, 56); transform-origin: 432.569px 394.938px;" id="el044ujzaexian" class="animable"></path><path d="M456.3,363.44c-3.76,1.34-7.32,3.21-11.07,4.56-.18.06-.08.34.1.31,4-.82,7.91-2.05,11.11-4.65A.13.13,0,0,0,456.3,363.44Z" style="fill: rgb(38, 50, 56); transform-origin: 450.818px 365.866px;" id="elr0cjesmff2m" class="animable"></path><path d="M425.62,355.33c.05-.19-.24-.31-.3-.1-1,3.46-1.75,7.13-.74,10.67,0,.14.25.15.26,0C425,362.32,424.82,358.85,425.62,355.33Z" style="fill: rgb(38, 50, 56); transform-origin: 424.863px 360.564px;" id="eljz8d5sjh51l" class="animable"></path><path d="M441.15,347.34a9.08,9.08,0,0,0-1.63,5.88c0,.14.21.21.25.06.46-2,1.22-3.79,1.83-5.71A.26.26,0,0,0,441.15,347.34Z" style="fill: rgb(38, 50, 56); transform-origin: 440.552px 350.307px;" id="eloupfldnf2ha" class="animable"></path><path d="M368.6,396.91c1.8,5.71,6.08,13.61,12.86,13.68,4.39,0,8.81-.48,13.22-.55,4.71-.07,9.44-.06,14.14.22.39,0-.56-14.12-11.89-21-3.18-1.93-7.06-2.54-10.66-3.32a49.53,49.53,0,0,0-12.6-1.32c-2.6.11-4.77.66-5.69,3.32S367.74,394.19,368.6,396.91Z" style="fill: rgb(255, 0, 0); transform-origin: 388.214px 397.598px;" id="elq6gzldl0ne" class="animable"></path><path d="M373.48,389.75c2.75.71,5.53,1.53,8.29,2.4a29.86,29.86,0,0,0-2.28-2.22,44.69,44.69,0,0,0-3.77-2.64c-.1-.07,0-.28.1-.23a15.56,15.56,0,0,1,6.68,5.32c3.45,1.11,6.86,2.34,10.14,3.69a37.73,37.73,0,0,1,6.49,3.42,25.5,25.5,0,0,0-2.35-4.09c-1.5-1.95-3.53-3-5.5-4.42a.17.17,0,0,1,.17-.3,16.07,16.07,0,0,1,8.84,9.58,38,38,0,0,1,6.43,5.84c7.5,8.52,13.4,19.85,13.43,31.41,0,.28-.45.36-.5.07a64.09,64.09,0,0,0-14.3-30.72q-.81-.93-1.65-1.8a53.21,53.21,0,0,0-6.19-.46c-2.42,0-4.81.36-7.21.55-4,.33-8.33.37-11.9-1.62-.16-.09,0-.36.12-.3,8,2.9,16.3-.77,24.28.95A37.25,37.25,0,0,0,391,396.6l-.73-.29c-5.11.61-10.5,1.94-15.47.28a.12.12,0,0,1,.06-.24c4.81,1.2,9.42-.3,14.16-.54-5.17-2-10.43-3.61-15.61-5.61C373,390,373,389.63,373.48,389.75Z" style="fill: rgb(38, 50, 56); transform-origin: 396.63px 412.407px;" id="eltldc35nj5v" class="animable"></path><path d="M371.22,394.78a66.33,66.33,0,0,0,7.44.56s.07.1,0,.11a15.4,15.4,0,0,1-7.5-.48A.1.1,0,0,1,371.22,394.78Z" style="fill: rgb(38, 50, 56); transform-origin: 374.895px 395.242px;" id="el0ava5oly5dne" class="animable"></path><path d="M388,389.88a12.25,12.25,0,0,1,3.68,2.56c.13.11-.05.34-.19.24-.62-.45-1.27-.88-1.91-1.3a17.41,17.41,0,0,1-1.79-1.13A.22.22,0,0,1,388,389.88Z" style="fill: rgb(38, 50, 56); transform-origin: 389.724px 391.289px;" id="elc51aegfnue7" class="animable"></path><path d="M428,408.28c-.09.19.18.37.29.17h0a.26.26,0,0,0,.18.11A114.49,114.49,0,0,0,442.35,411c3.75.33,8.07.54,11.35-1.64,4.44-2.94,7.37-10.82,5-15.83-2.84-5.94-11.41-2.72-15.71-.6A31.51,31.51,0,0,0,428,408.28Z" style="fill: rgb(255, 0, 0); transform-origin: 443.763px 400.669px;" id="el6n7x3geohhk" class="animable"></path><path d="M424.7,411a43.85,43.85,0,0,1,8.27-6.29,28.47,28.47,0,0,1,8.38-8.55c.17-.11.3.15.16.26a38.23,38.23,0,0,0-7.07,7.43,78.79,78.79,0,0,1,10.37-4.71,13.94,13.94,0,0,1,5.57-5.59c.05,0,.11,0,.06.08a22.89,22.89,0,0,0-5,5.28c2.11-.79,4.24-1.52,6.36-2.22.2-.07.27.22.09.29-3.79,1.48-7.66,3-11.41,4.84a43.53,43.53,0,0,0,13.81,0c.13,0,.19.16.06.2a27.24,27.24,0,0,1-14.66.22,70.42,70.42,0,0,0-7,3.89,17.59,17.59,0,0,1,5.62.46,42.18,42.18,0,0,0,9.88,1.12.12.12,0,0,1,0,.23c-5.73,1-11.15-1.62-16.83-.95a42.29,42.29,0,0,0-14.54,17c-2.39,4.86-3.68,10-5.62,15.05a.18.18,0,0,1-.35-.1C412.55,429,417.48,418.1,424.7,411Z" style="fill: rgb(38, 50, 56); transform-origin: 432.633px 416.361px;" id="elinmeg0gfjdq" class="animable"></path><path d="M442,397.44a6.48,6.48,0,0,1,1.47-1.78,5.78,5.78,0,0,1,1.69-1.27c.06,0,.09.06.06.09-.47.54-1.12.93-1.63,1.44s-.93,1.11-1.45,1.62A.09.09,0,0,1,442,397.44Z" style="fill: rgb(38, 50, 56); transform-origin: 443.614px 395.974px;" id="elmvjj4iiq18" class="animable"></path><path d="M451.44,400.51c.84-.21,1.74-.19,2.61-.37a25.32,25.32,0,0,0,2.53-.76c.11,0,.18.13.08.19a8.47,8.47,0,0,1-5.22,1.21A.14.14,0,0,1,451.44,400.51Z" style="fill: rgb(38, 50, 56); transform-origin: 454.023px 400.099px;" id="elvwsyoncqz4a" class="animable"></path><polygon points="401.09 426.73 401.84 435.27 404.4 464.11 426.98 464.11 430.17 435.27 431.11 426.73 401.09 426.73" style="fill: rgb(55, 71, 79); transform-origin: 416.1px 445.42px;" id="ely8eu7slw8ym" class="animable"></polygon><polygon points="401.09 426.73 401.84 435.27 430.17 435.27 431.11 426.73 401.09 426.73" style="fill: rgb(38, 50, 56); transform-origin: 416.1px 431px;" id="ely0mbhggajwp" class="animable"></polygon><g id="el7hq9lmia2xj"><rect x="398.86" y="424.4" width="34.49" height="6.93" style="fill: rgb(55, 71, 79); transform-origin: 416.105px 427.865px; transform: rotate(180deg);" class="animable"></rect></g></g><g id="freepik--Board--inject-9" class="animable" style="transform-origin: 130.37px 49.915px;"><polygon points="217.8 99.83 42.47 99.83 40.44 23.48 220.3 23.48 217.8 99.83" style="fill: rgb(255, 0, 0); transform-origin: 130.37px 61.655px;" id="elxvulmedqsv" class="animable"></polygon><polygon points="214.3 96.57 45.98 96.57 44.69 26.75 216.05 26.75 214.3 96.57" style="fill: rgb(38, 50, 56); transform-origin: 130.37px 61.66px;" id="elfyv6bwta6si" class="animable"></polygon><rect x="134.03" y="34.38" width="24.74" height="1.26" style="fill: rgb(255, 0, 0); transform-origin: 146.4px 35.01px;" id="elxonwvcnihrd" class="animable"></rect><rect x="164.25" y="34.38" width="24.74" height="1.26" style="fill: rgb(255, 0, 0); transform-origin: 176.62px 35.01px;" id="eldtcvmfoqurm" class="animable"></rect><rect x="194.68" y="34.38" width="12.89" height="1.26" style="fill: rgb(255, 0, 0); transform-origin: 201.125px 35.01px;" id="elrtkcakm82fp" class="animable"></rect><path d="M53.16,36.87V33.28a.34.34,0,0,1,.34-.34h.72a2.13,2.13,0,0,1,0,4.26H53.5A.34.34,0,0,1,53.16,36.87Zm.68-.34h.38a1.46,1.46,0,0,0,1.44-1.46,1.44,1.44,0,0,0-1.44-1.45h-.38Z" style="fill: rgb(255, 0, 0); transform-origin: 54.754px 35.07px;" id="elc3w9khx45h7" class="animable"></path><path d="M57.78,36.87V33.28a.34.34,0,0,1,.34-.34h2a.34.34,0,0,1,0,.68H58.46v1.11h1.41a.34.34,0,0,1,0,.68H58.46v1.12h1.65a.34.34,0,0,1,0,.67h-2s0,0,0,0h0A.34.34,0,0,1,57.78,36.87Z" style="fill: rgb(255, 0, 0); transform-origin: 59.12px 35.07px;" id="elhartsu2j9y9" class="animable"></path><path d="M63.36,35.55h-.75v1.32a.34.34,0,0,1-.67,0V33.28a.34.34,0,0,1,.33-.34h1.09a1.31,1.31,0,1,1,0,2.61Zm-.75-.68h.75a.63.63,0,1,0,0-1.25h-.75Z" style="fill: rgb(255, 0, 0); transform-origin: 63.3622px 35.0435px;" id="elagd2x3vqc7p" class="animable"></path><path d="M67.78,36.2H66.3L66,37a.34.34,0,0,1-.31.21l-.12,0a.34.34,0,0,1-.2-.44l1.34-3.58A.35.35,0,0,1,67,33a.33.33,0,0,1,.32.21l1.34,3.58a.34.34,0,0,1-.2.44l-.11,0a.32.32,0,0,1-.31-.21Zm-.25-.67L67,34.22l-.5,1.31Z" style="fill: rgb(255, 0, 0); transform-origin: 67.015px 35.115px;" id="el8aypc6ga7al" class="animable"></path><path d="M72.9,36.7a.34.34,0,0,1-.21.42l-.14,0h0a.43.43,0,0,1-.24-.07.55.55,0,0,1-.19-.21,1.59,1.59,0,0,1-.13-.73.58.58,0,0,0-.07-.26.55.55,0,0,0-.19-.18,1.05,1.05,0,0,0-.34-.14h-.71v1.32a.34.34,0,0,1-.35.33.33.33,0,0,1-.33-.33V33.28a.34.34,0,0,1,.33-.34h1.09a1.31,1.31,0,0,1,.83,2.31.88.88,0,0,1,.21.22,1.17,1.17,0,0,1,.2.66,2.05,2.05,0,0,0,0,.36A.32.32,0,0,1,72.9,36.7Zm-.85-2.45a.63.63,0,0,0-.63-.63h-.74v1.25h.74A.63.63,0,0,0,72.05,34.25Z" style="fill: rgb(255, 0, 0); transform-origin: 71.4575px 35.0601px;" id="els0l3ukiztt" class="animable"></path><path d="M76.92,33.62H76v3.25a.34.34,0,0,1-.67,0V33.62h-1a.34.34,0,0,1-.33-.34.33.33,0,0,1,.33-.34h2.6a.34.34,0,0,1,.33.34A.34.34,0,0,1,76.92,33.62Z" style="fill: rgb(255, 0, 0); transform-origin: 75.6299px 35.0459px;" id="elx5z6slf4xq" class="animable"></path><path d="M80.57,37.2a1.76,1.76,0,0,1-1.76-1.76V33.28a.34.34,0,0,1,.33-.34.35.35,0,0,1,.35.34v2.16a1.08,1.08,0,1,0,2.16,0V33.28a.34.34,0,1,1,.68,0v2.16A1.76,1.76,0,0,1,80.57,37.2Z" style="fill: rgb(255, 0, 0); transform-origin: 80.57px 35.07px;" id="el9lfgaqpv15n" class="animable"></path><path d="M87,36.7a.34.34,0,0,1-.21.42l-.14,0h0a.38.38,0,0,1-.23-.07.67.67,0,0,1-.2-.21,1.75,1.75,0,0,1-.12-.73.47.47,0,0,0-.08-.26.52.52,0,0,0-.18-.18,1.27,1.27,0,0,0-.34-.14h-.72v1.32a.34.34,0,0,1-.34.33.33.33,0,0,1-.33-.33V33.28a.33.33,0,0,1,.33-.34h1.09a1.31,1.31,0,0,1,.83,2.31.88.88,0,0,1,.21.22,1.17,1.17,0,0,1,.2.66,1,1,0,0,0,0,.36A.34.34,0,0,1,87,36.7Zm-.85-2.45a.63.63,0,0,0-.63-.63h-.75v1.25h.75A.63.63,0,0,0,86.12,34.25Z" style="fill: rgb(255, 0, 0); transform-origin: 85.5624px 35.06px;" id="eldwmes8yqthn" class="animable"></path><path d="M88.5,36.87V33.28a.34.34,0,0,1,.34-.34h2a.34.34,0,0,1,0,.68H89.18v1.11h1.41a.34.34,0,0,1,0,.68H89.18v1.12h1.65a.34.34,0,0,1,0,.67h-2s0,0,0,0h0A.34.34,0,0,1,88.5,36.87Z" style="fill: rgb(255, 0, 0); transform-origin: 89.84px 35.07px;" id="elz4sn7i8xy5m" class="animable"></path><path d="M92.52,36.14a.33.33,0,0,1,.45,0,2,2,0,0,0,1.16.47,1.27,1.27,0,0,0,.76-.23.54.54,0,0,0,.26-.44.41.41,0,0,0-.05-.19.55.55,0,0,0-.19-.18,2.32,2.32,0,0,0-.83-.29h0a3.17,3.17,0,0,1-.79-.24,1.23,1.23,0,0,1-.56-.47,1,1,0,0,1-.14-.5,1.14,1.14,0,0,1,.49-.89,1.81,1.81,0,0,1,1.05-.32,2.38,2.38,0,0,1,1.32.49.31.31,0,0,1,.09.43.3.3,0,0,1-.43.09,1.75,1.75,0,0,0-1-.39,1.15,1.15,0,0,0-.68.21.46.46,0,0,0-.23.38.31.31,0,0,0,0,.17.48.48,0,0,0,.16.16,2.07,2.07,0,0,0,.76.27h0a3.78,3.78,0,0,1,.84.25,1.39,1.39,0,0,1,.61.51,1,1,0,0,1,.15.51,1.18,1.18,0,0,1-.53,1,1.86,1.86,0,0,1-1.12.34,2.61,2.61,0,0,1-1.56-.6A.34.34,0,0,1,92.52,36.14Z" style="fill: rgb(255, 0, 0); transform-origin: 94.0508px 35.0702px;" id="elxkhrf50cmkk" class="animable"></path><rect x="53.16" y="43.07" width="75.08" height="1.26" style="fill: rgb(255, 255, 255); transform-origin: 90.7px 43.7px;" id="elzr1bind38sj" class="animable"></rect><rect x="134.03" y="43.07" width="24.74" height="1.26" style="fill: rgb(255, 255, 255); transform-origin: 146.4px 43.7px;" id="elynvkotfl9" class="animable"></rect><rect x="164.25" y="43.07" width="24.74" height="1.26" style="fill: rgb(255, 255, 255); transform-origin: 176.62px 43.7px;" id="elanguw3o1w8w" class="animable"></rect><rect x="194.68" y="43.07" width="12.89" height="1.26" style="fill: rgb(255, 255, 255); transform-origin: 201.125px 43.7px;" id="el9jfx86bl44n" class="animable"></rect><rect x="53.16" y="49.73" width="75.08" height="1.26" style="fill: rgb(255, 255, 255); transform-origin: 90.7px 50.36px;" id="ele5l5eel9cid" class="animable"></rect><rect x="134.03" y="49.73" width="24.74" height="1.26" style="fill: rgb(255, 255, 255); transform-origin: 146.4px 50.36px;" id="elarobapxqgkk" class="animable"></rect><rect x="164.25" y="49.73" width="24.74" height="1.26" style="fill: rgb(255, 255, 255); transform-origin: 176.62px 50.36px;" id="eln2w0vqimk9d" class="animable"></rect><rect x="194.68" y="49.73" width="12.89" height="1.26" style="fill: rgb(255, 255, 255); transform-origin: 201.125px 50.36px;" id="el472d28mdd5n" class="animable"></rect><rect x="53.16" y="56.39" width="75.08" height="1.26" style="fill: rgb(255, 255, 255); transform-origin: 90.7px 57.02px;" id="el8sjrcvjbo46" class="animable"></rect><rect x="134.03" y="56.39" width="24.74" height="1.26" style="fill: rgb(255, 255, 255); transform-origin: 146.4px 57.02px;" id="elz6m1deh2q9c" class="animable"></rect><rect x="164.25" y="56.39" width="24.74" height="1.26" style="fill: rgb(255, 255, 255); transform-origin: 176.62px 57.02px;" id="eljx58wx8nxda" class="animable"></rect><rect x="194.68" y="56.39" width="12.89" height="1.26" style="fill: rgb(255, 255, 255); transform-origin: 201.125px 57.02px;" id="elgurbah8r7ds" class="animable"></rect><rect x="53.16" y="63.06" width="75.08" height="1.26" style="fill: rgb(255, 255, 255); transform-origin: 90.7px 63.69px;" id="elxu0erbvevhg" class="animable"></rect><rect x="134.03" y="63.06" width="24.74" height="1.26" style="fill: rgb(255, 255, 255); transform-origin: 146.4px 63.69px;" id="eluqgduum26ld" class="animable"></rect><rect x="164.25" y="63.06" width="24.74" height="1.26" style="fill: rgb(255, 255, 255); transform-origin: 176.62px 63.69px;" id="elw41i86l7f5q" class="animable"></rect><rect x="194.68" y="63.06" width="12.89" height="1.26" style="fill: rgb(255, 255, 255); transform-origin: 201.125px 63.69px;" id="elb6yep41z6dd" class="animable"></rect><rect x="53.16" y="69.72" width="75.08" height="1.26" style="fill: rgb(255, 255, 255); transform-origin: 90.7px 70.35px;" id="el9uzrolobj39" class="animable"></rect><rect x="134.03" y="69.72" width="24.74" height="1.26" style="fill: rgb(255, 255, 255); transform-origin: 146.4px 70.35px;" id="elwjahweu8ey" class="animable"></rect><rect x="164.25" y="69.72" width="24.74" height="1.26" style="fill: rgb(255, 255, 255); transform-origin: 176.62px 70.35px;" id="elaas1t5cqwft" class="animable"></rect><rect x="194.68" y="69.72" width="12.89" height="1.26" style="fill: rgb(255, 255, 255); transform-origin: 201.125px 70.35px;" id="el7ov0d1jsys4" class="animable"></rect><rect x="53.16" y="76.38" width="75.08" height="1.26" style="fill: rgb(255, 255, 255); transform-origin: 90.7px 77.01px;" id="elecvuu6xm0qv" class="animable"></rect><rect x="134.03" y="76.38" width="24.74" height="1.26" style="fill: rgb(255, 255, 255); transform-origin: 146.4px 77.01px;" id="elxigwojfn0rd" class="animable"></rect><rect x="164.25" y="76.38" width="24.74" height="1.26" style="fill: rgb(255, 255, 255); transform-origin: 176.62px 77.01px;" id="elg9zuy9ibox4" class="animable"></rect><rect x="194.68" y="76.38" width="12.89" height="1.26" style="fill: rgb(255, 255, 255); transform-origin: 201.125px 77.01px;" id="el3osyfubokt7" class="animable"></rect><rect x="53.16" y="83.04" width="75.08" height="1.26" style="fill: rgb(255, 255, 255); transform-origin: 90.7px 83.67px;" id="el8v8i4c9gz7u" class="animable"></rect><rect x="134.03" y="83.04" width="24.74" height="1.26" style="fill: rgb(255, 255, 255); transform-origin: 146.4px 83.67px;" id="elsmnzt88dd2" class="animable"></rect><rect x="164.25" y="83.04" width="24.74" height="1.26" style="fill: rgb(255, 255, 255); transform-origin: 176.62px 83.67px;" id="el8dcnkgj2elo" class="animable"></rect><rect x="194.68" y="83.04" width="12.89" height="1.26" style="fill: rgb(255, 255, 255); transform-origin: 201.125px 83.67px;" id="elaaytfcnwi5k" class="animable"></rect><rect x="53.16" y="89.7" width="75.08" height="1.26" style="fill: rgb(255, 255, 255); transform-origin: 90.7px 90.33px;" id="el7d4f467x0ow" class="animable"></rect><rect x="134.03" y="89.7" width="24.74" height="1.26" style="fill: rgb(255, 255, 255); transform-origin: 146.4px 90.33px;" id="elvyk1qhzvus" class="animable"></rect><rect x="164.25" y="89.7" width="24.74" height="1.26" style="fill: rgb(255, 255, 255); transform-origin: 176.62px 90.33px;" id="el8ppsb0rebbn" class="animable"></rect><rect x="194.68" y="89.7" width="12.89" height="1.26" style="fill: rgb(255, 255, 255); transform-origin: 201.125px 90.33px;" id="ely5pf6dywcu" class="animable"></rect><rect x="58.64" width="7.36" height="23.48" style="fill: rgb(219, 219, 219); transform-origin: 62.32px 11.74px;" id="elksi1qa2h5j" class="animable"></rect><rect x="194.74" width="7.36" height="23.48" style="fill: rgb(219, 219, 219); transform-origin: 198.42px 11.74px;" id="ela1i5h7zhuwu" class="animable"></rect></g><g id="freepik--Character--inject-9" class="animable" style="transform-origin: 250.001px 269.315px;"><path d="M216.6,164.54c-11.84,18.54-19.18,32.93-20.63,37.3-3.7,11.14,1.5,40.41,1.58,45.44,0,3.27,28.72-.4,27.9-3.78-2.47-10.2-7.7-36.58-7.66-37,.27-2.84,6-21.14,8.39-34.88S222.62,155.12,216.6,164.54Z" style="fill: rgb(247, 169, 160); transform-origin: 210.682px 203.779px;" id="elqqw7pimxaij" class="animable"></path><path d="M224.82,188.43l-27.27.15s10.6-17.26,18.29-26.19c8-9.31,15.36-9.11,13,7S224.82,188.43,224.82,188.43Z" style="fill: rgb(255, 0, 0); transform-origin: 213.419px 172.372px;" id="el0xd4uxhgcpve" class="animable"></path><path d="M219.39,184.76a1.57,1.57,0,0,1-.66.43,1.41,1.41,0,0,1-1.37-.25,1.86,1.86,0,0,0-2.08-.11,1.93,1.93,0,0,0-.68.75c-.13.29-.29.54-.42.83.26-.18.47-.4.71-.59a1.59,1.59,0,0,1,.66-.47,1.42,1.42,0,0,1,1.36.19,1.8,1.8,0,0,0,2.78-.56c.13-.27.29-.53.41-.82C219.84,184.34,219.63,184.56,219.39,184.76Zm-4.57-20.82a1.56,1.56,0,0,1-.61.42l-.64.79a1.73,1.73,0,0,0,.84-.23,1.86,1.86,0,0,0,.7-.75c.14-.28.3-.53.42-.82C215.27,163.53,215.06,163.75,214.82,163.94Zm-12,16.35c.06.2.13.41.2.6,0-.3,0-.62.08-.92a.53.53,0,0,1,0-.13C203,180,202.94,180.14,202.85,180.29Zm3.08-4.3-.06-.22-.31.45h0a1.29,1.29,0,0,1-.13.6,1.43,1.43,0,0,1-.76.73h0l-.63.94a1.45,1.45,0,0,1,.41-.1A1.87,1.87,0,0,0,206,177,1.81,1.81,0,0,0,205.93,176Zm19.49-2.46a1.63,1.63,0,0,1-.78-.17,1.41,1.41,0,0,1-.78-1.13,1.86,1.86,0,0,0-1.4-1.55,1.9,1.9,0,0,0-1,0,9.12,9.12,0,0,0-.88.3c.3,0,.62,0,.92.07a2,2,0,0,1,.8.14,1.41,1.41,0,0,1,.82,1.09,1.85,1.85,0,0,0,1.34,1.59,1.77,1.77,0,0,0,1,0,7.54,7.54,0,0,0,.88-.29C226,173.55,225.73,173.55,225.42,173.53Z" style="fill: rgb(255, 255, 255); transform-origin: 214.565px 174.88px;" id="el8msup7kmwxc" class="animable"></path><path d="M223,183.75c-.64-.07-1.31-.06-2-.07l-2,0c-1.36,0-2.71,0-4.07,0-2.71,0-5.43,0-8.14,0-.75,0-1.49,0-2.24.06s-1.56.13-2.35.16a0,0,0,0,0,0,.08c.67,0,1.34.09,2,.11s1.38,0,2.06,0h4.08c2.67,0,5.34,0,8-.12l2.24-.08a23,23,0,0,0,2.35-.1S223,183.75,223,183.75Z" style="fill: rgb(38, 50, 56); transform-origin: 212.6px 183.889px;" id="elomk50j909zq" class="animable"></path><g id="elpdlxanrg7oi"><path d="M228.89,169.38c-2.32,16.19-4.07,19.05-4.07,19.05l-23.87.13L222.05,157C227.14,154.37,230.57,157.66,228.89,169.38Z" style="opacity: 0.1; transform-origin: 215.136px 172.355px;" class="animable"></path></g><path d="M197.49,246.21c0,3.16.39,19.94,1.67,23.87s5.82,15,8.93,14.29,2-4,2-4,2.65,4.36,5.72,3.39,1.24-6.11,1.24-6.11,3,4.28,6,3.09.29-6,.29-6,2.6,4,4.65,2c2.47-2.43-3.17-9.34-4.27-13.79-.24-1-3.58-20.82-3.58-20.82Z" style="fill: rgb(247, 169, 160); transform-origin: 213.05px 263.266px;" id="elglle0wqq5q" class="animable"></path><path d="M223.64,275.1c-4.14-5.09-5.07-8-5.84-14.45a.1.1,0,0,0-.2,0c.18,6.35.82,10.21,5.8,14.66C223.65,275.53,223.84,275.34,223.64,275.1Z" style="fill: rgb(38, 50, 56); transform-origin: 220.662px 267.979px;" id="elcw2amp7gqt" class="animable"></path><path d="M217.43,278c-3.84-5.66-4.88-8.85-6.17-15.51a.09.09,0,0,0-.17,0c.72,6.64,1.44,10.47,6,15.63C217.32,278.41,217.6,278.29,217.43,278Z" style="fill: rgb(38, 50, 56); transform-origin: 214.286px 270.358px;" id="elvtuj4mpex2i" class="animable"></path><path d="M210.08,280c-3.32-5.75-4.61-9.19-5-15.82a.12.12,0,1,0-.24,0c-.22,6.8,1.35,11.11,5.09,15.9C210.15,280.42,210.29,280.37,210.08,280Z" style="fill: rgb(38, 50, 56); transform-origin: 207.502px 272.184px;" id="el84ehdfcsbur" class="animable"></path><path d="M224,238.29s5.11,6.3,6.37,9.78,1.19,18.17-2,18.33c-4.09.21-5.72-8.28-6-12.54,0,0-9.48.5-12-5.34S224,238.29,224,238.29Z" style="fill: rgb(247, 169, 160); transform-origin: 220.618px 252.347px;" id="el4fl3tt0b124" class="animable"></path><path d="M227.23,266.09c-3.88-2.5-3.85-8.12-4.4-12.23a.38.38,0,0,0-.54-.31c-4-.06-9.6-1.3-11.95-4.79-.07-.1-.23,0-.17.09,2,4.09,7.43,5.76,11.8,5.54.5,4.23.72,9.86,5.24,11.74C227.23,266.14,227.25,266.11,227.23,266.09Z" style="fill: rgb(38, 50, 56); transform-origin: 218.698px 257.425px;" id="elp6spogzveb" class="animable"></path><path d="M189.7,398.28s-4.61,43.15-4.61,43.18c.16,8,.44,15,.92,18.56a.13.13,0,0,0,0,.06,5.52,5.52,0,0,0,.64,2.45s0,0,.05.05c2.4,1.56,49.19,2.15,51.42,1.42s.33-7.14-2.13-9.14-9.81-13.14-9.81-13.14l4.21-43.12Z" style="fill: rgb(247, 169, 160); transform-origin: 212.1px 431.295px;" id="el3u9yfuhvc8" class="animable"></path><path d="M228.51,443.68c-4-1.44-9.26-1.61-12.92.86-.15.09,0,.29.13.27a59.86,59.86,0,0,1,12.69-.61A.27.27,0,0,0,228.51,443.68Z" style="fill: rgb(38, 50, 56); transform-origin: 222.103px 443.722px;" id="elaf4obfodzdd" class="animable"></path><path d="M231.24,446c-4.06-1.44-9.27-1.61-12.93.86-.14.1,0,.3.14.28a59.21,59.21,0,0,1,12.69-.61A.27.27,0,0,0,231.24,446Z" style="fill: rgb(38, 50, 56); transform-origin: 224.85px 446.047px;" id="elhu1cwawua1" class="animable"></path><path d="M234,448.27c-4.05-1.44-9.26-1.61-12.92.86-.14.09,0,.29.14.27a59.73,59.73,0,0,1,12.68-.61A.27.27,0,0,0,234,448.27Z" style="fill: rgb(38, 50, 56); transform-origin: 227.595px 448.312px;" id="elwac7338ssw" class="animable"></path><path d="M239.19,464.27c-2.23.73-50.08-.13-52.49-1.69-.92-.58-1.38-9.87-1.61-21.12v-.35l41.12-.08,0,.7s8.4,11.4,10.87,13.4S241.42,463.55,239.19,464.27Z" style="fill: rgb(55, 71, 79); transform-origin: 212.638px 452.782px;" id="el6rmtgmwjmby" class="animable"></path><path d="M185.08,441.1v.37c.23,11.24.68,20.53,1.61,21.11,1.09.71,14.92,1.22,29.85,1.5,17.87.33,21.42.59,22.64.19,2.23-.73.32-7.15-2.13-9.14s-10.87-13.4-10.87-13.4l0-.7-13.72,0Z" style="fill: rgb(69, 90, 100); transform-origin: 212.624px 452.751px;" id="eljivmkf5s68" class="animable"></path><path d="M238.49,461.79c-10.74-.37-38.21-1.08-48.85-.62-.09,0-.09.06,0,.07,10.64.59,38.1.95,48.85.72C238.72,462,238.72,461.8,238.49,461.79Z" style="fill: rgb(38, 50, 56); transform-origin: 214.118px 461.525px;" id="eljzikiuqbduf" class="animable"></path><g id="elyxq9uobdww9"><path d="M212.5,441.06c1.12,6.87,2.82,17,4.05,23,17.87.33,21.42.59,22.64.19,2.23-.73.32-7.15-2.13-9.14s-10.87-13.4-10.87-13.4l0-.7Z" style="opacity: 0.1; transform-origin: 226.339px 452.731px;" class="animable"></path></g><path d="M182.23,441.87l46.11-.33s3.43-84.89,5.81-109.82c3-31.17,6.75-109,6.75-109H201.69s-8.94,19.06-3.3,40.25l-5.73,76.5Z" style="fill: rgb(38, 50, 56); transform-origin: 211.565px 332.295px;" id="ela1da8ih7k5" class="animable"></path><path d="M186.14,433.74a31.88,31.88,0,0,1,3.67-.35c1.36-.12,2.71-.25,4.08-.33,2.62-.15,5.24-.24,7.87-.3,5.29-.11,10.59-.15,15.88-.08,3,.05,6,.12,9,.24.11,0,.11.18,0,.19-5.24.27-10.49.45-15.74.63s-10.5.38-15.74.37c-1.5,0-3,0-4.51-.05s-3.05.05-4.52-.14C186.07,433.91,186,433.76,186.14,433.74Z" style="fill: rgb(55, 71, 79); transform-origin: 206.39px 433.378px;" id="elg9g2dtkkn67" class="animable"></path><path d="M225.86,392.73c1.1-12,1.11-28.84,2-40.84q2.79-36,4.24-72.07c.54-13.49.92-27,1.25-40.49,0-.15.22-.13.22,0-.09,24.19-.9,48.39-2.13,72.55s-2,52.92-4.31,76.87c-1.32,13.45-2.77,26.89-4.64,40.26,0,.12-.18.11-.17,0C223.48,416.92,224.74,404.83,225.86,392.73Z" style="fill: rgb(55, 71, 79); transform-origin: 227.945px 334.161px;" id="elvscxstfm2fl" class="animable"></path><path d="M245.73,399.56s1.05,41.68,1.05,41.71c.16,8,.44,15,.92,18.56a.13.13,0,0,0,0,.06,5.57,5.57,0,0,0,.64,2.45l.05.05c2.4,1.56,66.15,2.14,68.38,1.41s.33-7.14-2.13-9.13-26.77-13.14-26.77-13.14l-1.45-41.65Z" style="fill: rgb(247, 169, 160); transform-origin: 281.745px 431.836px;" id="elart8nubgoep" class="animable"></path><path d="M246.56,432.71s.22,8.53.22,8.56c.16,8,.44,15,.92,18.56a.13.13,0,0,0,0,.06,11,11,0,0,0,.64,2.45l.05.05c2.4,1.56,66.15,2.14,68.38,1.41s.33-7.14-2.13-9.13-26.77-13.14-26.77-13.14l-.1-8.69Z" style="fill: rgb(255, 255, 255); transform-origin: 282.16px 448.411px;" id="elm2kdvpxwkyn" class="animable"></path><path d="M291.79,441.49c-4.26-.63-9.4.22-12.52,3.35-.12.12.06.29.19.24A60,60,0,0,1,291.79,442,.27.27,0,0,0,291.79,441.49Z" style="fill: rgb(38, 50, 56); transform-origin: 285.601px 443.192px;" id="elhm606y22ui9" class="animable"></path><path d="M294.9,443.21c-4.25-.63-9.39.22-12.51,3.35-.12.12.06.29.19.24a60,60,0,0,1,12.33-3.06A.27.27,0,0,0,294.9,443.21Z" style="fill: rgb(38, 50, 56); transform-origin: 288.737px 444.912px;" id="ela5kvhw9rb2s" class="animable"></path><path d="M298,444.93c-4.25-.63-9.39.22-12.51,3.35-.12.12.06.29.19.25A58.7,58.7,0,0,1,298,445.47.27.27,0,0,0,298,444.93Z" style="fill: rgb(38, 50, 56); transform-origin: 291.86px 446.636px;" id="el6dos2hcnvz" class="animable"></path><path d="M316.78,463.81c-2.23.73-66,.14-68.39-1.42-.92-.58-1.38-9.88-1.61-21.12v-.35l41.12-.08,0,.69s24.3,11.14,26.77,13.14S319,463.09,316.78,463.81Z" style="fill: rgb(69, 90, 100); transform-origin: 282.276px 452.48px;" id="elho415eb01k9" class="animable"></path><path d="M316.08,461.33c-10.74-.36-54.11-.81-64.75-.36-.09,0-.09.07,0,.07,10.64.59,54,.69,64.75.46C316.31,461.5,316.31,461.34,316.08,461.33Z" style="fill: rgb(38, 50, 56); transform-origin: 283.757px 461.198px;" id="el29kb9vza0pi" class="animable"></path><path d="M222.43,266.54s13.55,59.3,14.07,70.25C237,346.13,243.72,442,243.72,442l47.89-.52s-12-97.69-12.95-107.41c-1.7-18.18-12.13-67.89-24.28-112.22l-51.62.87s.84,23.3,11.72,40C214.48,262.72,219.32,264.86,222.43,266.54Z" style="fill: rgb(38, 50, 56); transform-origin: 247.185px 331.925px;" id="elfsocmkhien9" class="animable"></path><path d="M246.12,433.14c5.53-.25,11.26-.51,16.8-.47s11,0,16.48.27c3.11.14,6.21.19,9.32.44a.09.09,0,0,1,0,.17c-5.53.41-11.08.44-16.61.48s-11,.08-16.48-.08c-3.11-.09-6.22-.2-9.32-.36C246,433.57,245.79,433.15,246.12,433.14Z" style="fill: rgb(55, 71, 79); transform-origin: 267.367px 433.366px;" id="elw6q8m81s51" class="animable"></path><path d="M234.29,267.49a42.55,42.55,0,0,1-7.13-.53,69.59,69.59,0,0,1-6.92-1.79,52.84,52.84,0,0,0-6.77-1,24.1,24.1,0,0,1-6.66-1.86c-.09-.05-.17.1-.07.15a40.53,40.53,0,0,0,6.39,2.64c2.28.68,4.65.74,7,1.26a57.42,57.42,0,0,0,7.12,1.52,25.92,25.92,0,0,0,7.09-.24C234.41,267.63,234.37,267.49,234.29,267.49Z" style="fill: rgb(55, 71, 79); transform-origin: 220.535px 265.159px;" id="ela7ulwmh1pma" class="animable"></path><path d="M233.76,318.81c-.35-1.92-.66-3.84-1-5.75-.74-3.86-1.5-7.73-2.35-11.56-1.7-7.63-3.27-15.29-5.09-22.88-1-4.3-1.93-8.65-3.19-12.89a.08.08,0,1,0-.15,0c.52,3.91,1.37,7.76,2.1,11.63s1.54,7.72,2.34,11.57c1.6,7.65,3.15,15.31,4.94,22.91.5,2.13,1,4.26,1.57,6.37s1,4.39,1.69,6.5c0,.12.18.08.17,0C234.56,322.72,234.11,320.77,233.76,318.81Z" style="fill: rgb(55, 71, 79); transform-origin: 228.383px 295.204px;" id="elps9wjumo1fn" class="animable"></path><path d="M253.11,248c5.78,26.81,12.71,56.6,17.45,83.51,3.23,31.21,6.12,64.9,8.67,96.27-2.66-25.19-6.54-65-9.06-90.51A102.65,102.65,0,0,0,268.69,326c-4.73-24.15-10.85-53.85-15.58-78Z" style="fill: rgb(55, 71, 79); transform-origin: 266.17px 337.89px;" id="els5x8hw0lzyi" class="animable"></path><path d="M233.67,165.49c-3.2.31-6.48-4.59-6.89-8.69,0-.31.67-3,1.45-6.36.48-2,1-4.31,1.24-6.42l12.79,5a33.84,33.84,0,0,0-2.37,7.92,4.39,4.39,0,0,0,0,.88.74.74,0,0,1,0,.15C239.91,159.65,236.76,165.18,233.67,165.49Z" style="fill: rgb(247, 169, 160); transform-origin: 234.52px 154.762px;" id="elvz86w1p2238" class="animable"></path><path d="M224.68,126.24c-1.74,5.63.51,19.74,4.5,23.38,5.79,5.29,15.3,5.83,19.8-1.14,4.36-6.75,1.28-24.56-3.18-27.87C239.22,115.73,227.25,117.93,224.68,126.24Z" style="fill: rgb(247, 169, 160); transform-origin: 237.585px 135.848px;" id="el1t0y7msuel7" class="animable"></path><path d="M225.42,123.39s-4.68,3.84-5.09,5.87,2.65,17.25,7.9,21.18c1.92,1.44,11.06-3.95,11.68-5.5s-1-6.59-1.31-8.69,2.12-2.52,2.77-2.17c4.14,2.21,4.63,7.72,5,6.8a19.48,19.48,0,0,0,1.76-5.77c.08-2-3.51-8.13-3.35-9.75s2.43-.5,3.9-.76c.91-.15.68-5.6-.55-6.56-.88-.69-12.53-3.12-18.83-1.35C226.91,117.37,225.42,123.39,225.42,123.39Z" style="fill: rgb(38, 50, 56); transform-origin: 234.764px 133.369px;" id="el3i6zvhmsmh" class="animable"></path><path d="M244.9,138.06s-3.44-5.06-5.73-3.84.25,8.52,2.9,9.55a2.72,2.72,0,0,0,3.66-1.41Z" style="fill: rgb(247, 169, 160); transform-origin: 242.004px 139.028px;" id="elh7ckenjl8k6" class="animable"></path><path d="M240,136.29s0,.06,0,.08c1.86.78,2.82,2.53,3.48,4.34a1.49,1.49,0,0,0-2.23-.44c-.05,0,0,.11.05.1a1.65,1.65,0,0,1,1.83.61,8.48,8.48,0,0,1,.86,1.49c.08.17.38.09.32-.11v0C244.32,139.94,242.51,136.57,240,136.29Z" style="fill: rgb(38, 50, 56); transform-origin: 242.159px 139.426px;" id="eloxd1mxxmy2" class="animable"></path><path d="M194.62,239.22c0,.06,67.31,1.27,67.67.9s-4.53-19.6-5-22.2c-3.37-19.63-7.54-49.24-15-59-3.43-4.49-13.19-6.5-16.38-4.31-8.29,5.68-11.87,12.21-14.9,19.3C208.81,179.19,194.33,238.87,194.62,239.22Z" style="fill: rgb(255, 0, 0); transform-origin: 228.462px 196.955px;" id="elstcof3fzpz" class="animable"></path><path d="M225.42,173.53a1.63,1.63,0,0,1-.78-.17,1.41,1.41,0,0,1-.78-1.13,1.86,1.86,0,0,0-1.4-1.55,1.9,1.9,0,0,0-1,0,9.12,9.12,0,0,0-.88.3c.3,0,.62,0,.92.07a2,2,0,0,1,.8.14,1.41,1.41,0,0,1,.82,1.09,1.85,1.85,0,0,0,1.34,1.59,1.77,1.77,0,0,0,1,0,7.54,7.54,0,0,0,.88-.29C226,173.55,225.73,173.55,225.42,173.53Zm20.66,55a1.65,1.65,0,0,1-.77-.17,1.43,1.43,0,0,1-.8-1.13,1.86,1.86,0,0,0-1.39-1.56,2,2,0,0,0-1,.05c-.3.1-.59.17-.88.29.31.05.61.05.92.08a2.11,2.11,0,0,1,.79.13,1.45,1.45,0,0,1,.83,1.1,1.86,1.86,0,0,0,1.33,1.59,1.76,1.76,0,0,0,1,0,6.48,6.48,0,0,0,.88-.29C246.69,228.54,246.39,228.54,246.08,228.52Zm-42-28.82a2,2,0,0,0-.09.35h0a7.54,7.54,0,0,0,.88-.29A7.18,7.18,0,0,0,204.07,199.7Zm21,23.17a1.73,1.73,0,0,1-.78-.16,1.46,1.46,0,0,1-.79-1.14,1.86,1.86,0,0,0-1.39-1.56,1.89,1.89,0,0,0-1,.06c-.29.1-.6.17-.88.29.3,0,.62,0,.92.07a1.77,1.77,0,0,1,.79.14,1.4,1.4,0,0,1,.83,1.1,1.87,1.87,0,0,0,1.33,1.59,1.76,1.76,0,0,0,1,0c.3-.1.59-.18.89-.29C225.66,222.9,225.36,222.9,225.05,222.87Zm-26.89,13.59a1.75,1.75,0,0,1-.78-.16,1.45,1.45,0,0,1-.79-1.14,1.85,1.85,0,0,0-.83-1.31c-.06.27-.12.52-.17.77a1.27,1.27,0,0,1,.25.64,1.89,1.89,0,0,0,1.35,1.59,1.77,1.77,0,0,0,1,0c.29-.1.59-.18.88-.29C198.78,236.49,198.47,236.49,198.16,236.46Zm38.93-40a1.86,1.86,0,0,1-.77-.15,1.46,1.46,0,0,1-.8-1.14,1.8,1.8,0,0,0-2.4-1.5c-.29.09-.59.16-.88.28.31.05.62.05.93.08a1.58,1.58,0,0,1,.78.14,1.37,1.37,0,0,1,.83,1.09,1.88,1.88,0,0,0,1.34,1.59,1.76,1.76,0,0,0,1,0c.3-.09.59-.17.89-.29C237.71,196.52,237.41,196.52,237.09,196.49Zm20.23,21.43a1.88,1.88,0,0,0-1.59,1.33,1.67,1.67,0,0,0,0,1c.09.3.16.59.28.89,0-.32,0-.62.08-.93a1.54,1.54,0,0,1,.17-.77,1.4,1.4,0,0,1,1.13-.8h0C257.4,218.34,257.35,218.09,257.32,217.92ZM221,202.2c-.09-.29-.16-.59-.28-.88-.05.31-.05.62-.08.92a1.69,1.69,0,0,1-.14.8,1.39,1.39,0,0,1-1.1.82,1.9,1.9,0,0,0-1.59,1.34,1.76,1.76,0,0,0,0,1c.1.29.17.59.29.88,0-.31,0-.62.08-.92a1.58,1.58,0,0,1,.16-.78,1.42,1.42,0,0,1,1.14-.79,1.86,1.86,0,0,0,1.55-1.4A1.81,1.81,0,0,0,221,202.2Zm20.44-24.39c-.1-.3-.17-.59-.29-.88-.05.31-.05.61-.08.93a1.58,1.58,0,0,1-.14.78,1.42,1.42,0,0,1-1.1.84,1.89,1.89,0,0,0-1.59,1.33,1.76,1.76,0,0,0,0,1c.1.3.17.59.29.89,0-.32,0-.62.08-.94a1.59,1.59,0,0,1,.16-.77,1.4,1.4,0,0,1,1.14-.79,1.86,1.86,0,0,0,1.55-1.39A1.93,1.93,0,0,0,241.4,177.81ZM212.92,235a9.3,9.3,0,0,0-.3-.89c-.05.31-.05.62-.07.93a1.84,1.84,0,0,1-.14.78,1.41,1.41,0,0,1-1.09.84,1.83,1.83,0,0,0-1.59,1.33,1.76,1.76,0,0,0,0,1c.06.19.11.37.17.55h.14c0-.2,0-.4.05-.6a1.59,1.59,0,0,1,.17-.77,1.4,1.4,0,0,1,1.13-.79A1.89,1.89,0,0,0,213,236,2,2,0,0,0,212.92,235Zm21.67-75.75a1.53,1.53,0,0,1-.67.44,1.42,1.42,0,0,1-1.36-.25,1.84,1.84,0,0,0-2.77.65c-.13.27-.29.53-.42.82.26-.18.48-.4.72-.6a1.65,1.65,0,0,1,.66-.46,1.38,1.38,0,0,1,1.35.19,1.89,1.89,0,0,0,2.07.19,1.93,1.93,0,0,0,.71-.74c.13-.29.29-.54.42-.83C235,158.81,234.83,159,234.59,159.22Zm19.12,37.49a1.41,1.41,0,0,1-1.28-.27,1.86,1.86,0,0,0-2.08-.11,1.77,1.77,0,0,0-.67.75c-.14.28-.3.54-.43.83.26-.18.47-.4.71-.6a1.73,1.73,0,0,1,.66-.46A1.42,1.42,0,0,1,252,197a1.91,1.91,0,0,0,1.84.3C253.79,197.13,253.75,196.92,253.71,196.71Zm-34.32-12a1.57,1.57,0,0,1-.66.43,1.41,1.41,0,0,1-1.37-.25,1.86,1.86,0,0,0-2.08-.11,1.93,1.93,0,0,0-.68.75c-.13.29-.29.54-.42.83.26-.18.47-.4.71-.59a1.59,1.59,0,0,1,.66-.47,1.42,1.42,0,0,1,1.36.19,1.8,1.8,0,0,0,2.78-.56c.13-.27.29-.53.41-.82C219.84,184.34,219.63,184.56,219.39,184.76Zm-12.7,34.57a1.64,1.64,0,0,1-.65.43,1.44,1.44,0,0,1-1.37-.25,1.9,1.9,0,0,0-2.09-.12,2,2,0,0,0-.67.76c-.14.28-.3.54-.43.83.26-.18.48-.4.72-.6a1.73,1.73,0,0,1,.66-.46,1.41,1.41,0,0,1,1.35.19,1.89,1.89,0,0,0,2.07.18,1.68,1.68,0,0,0,.71-.74c.14-.27.29-.54.42-.82C207.16,218.9,206.94,219.12,206.69,219.33ZM262,238.25a1.4,1.4,0,0,1-1.13-.29,1.82,1.82,0,0,0-2.76.63,7.18,7.18,0,0,0-.42.83c.25-.19.47-.4.7-.6a1.73,1.73,0,0,1,.66-.46,1.38,1.38,0,0,1,1.36.2,1.89,1.89,0,0,0,1.72.31C262.07,238.68,262,238.48,262,238.25ZM242.54,210.2a1.69,1.69,0,0,1-.67.44,1.46,1.46,0,0,1-1.37-.24,1.86,1.86,0,0,0-2.08-.12,1.82,1.82,0,0,0-.67.75,9.33,9.33,0,0,0-.43.83c.26-.19.48-.4.71-.6a1.73,1.73,0,0,1,.66-.46,1.38,1.38,0,0,1,1.36.2,1.89,1.89,0,0,0,2.06.17,1.77,1.77,0,0,0,.71-.73,8.22,8.22,0,0,0,.42-.84C243,209.79,242.77,210,242.54,210.2Zm-9.27,26.65a1.56,1.56,0,0,1-.67.43,1.41,1.41,0,0,1-1.36-.24,1.86,1.86,0,0,0-2.08-.11,1.82,1.82,0,0,0-.69.75c-.14.28-.3.54-.42.83.25-.19.48-.4.71-.6a1.8,1.8,0,0,1,.66-.46,1.36,1.36,0,0,1,1.35.19,1.88,1.88,0,0,0,2.08.18,1.77,1.77,0,0,0,.7-.74c.14-.28.3-.54.42-.83C233.72,236.44,233.5,236.66,233.27,236.85Z" style="fill: rgb(255, 255, 255); transform-origin: 228.875px 199.1px;" id="el4xguvnzz1n" class="animable"></path><path d="M242.62,168.75c22.26,1.5,48.19-6.47,53.87-13.11,2.73-3.18,8.71-26.21,10-38.69.3-3-24.94-10.84-25.86-6.49-1.53,7.19-9.84,29.85-9.72,30.12.52,1.24-15.88,8.19-30.58,14.69C223,163,233.74,168.16,242.62,168.75Z" style="fill: rgb(247, 169, 160); transform-origin: 268.79px 139.054px;" id="elqsgfud6rb4" class="animable"></path><path d="M281.22,118.51s-.52-1.82-2.3-10.83c-1.23-6.23-.25-22.2,14.8-31.8,5.77-3.69,10.87-1.25,5.56,3.64-3.75,3.44-6.63,5.51-7.54,7,0,0,7.76-.55,10.63,2.93A82.48,82.48,0,0,1,309.21,99a18.28,18.28,0,0,1-1.69,1.45s3.06,10.45-2,17.62Z" style="fill: rgb(247, 169, 160); transform-origin: 293.875px 96.3035px;" id="elhx82rr2nem" class="animable"></path><path d="M278.69,101.54c1.66-2.88,5.29-8.94,10-12.86,5.2-4.35,16.41-11.34,19.59-7.47,2.33,2.85-1.72,5.89-1.72,5.89s5.24-1.91,6.78,1.12c1.41,2.76-1.86,4.92-1.86,4.92s3.38-.61,4.22,2.31c1,3.51-6.23,4.22-8.28,8.66C306.94,105.11,278.69,101.54,278.69,101.54Z" style="fill: rgb(247, 169, 160); transform-origin: 297.242px 92.1848px;" id="elkgr5rrl1dr" class="animable"></path><path d="M292.35,95a27,27,0,0,1,14.06-7.9c.14,0,.23.07.11.12A66.48,66.48,0,0,0,292.39,95S292.33,95,292.35,95Z" style="fill: rgb(38, 50, 56); transform-origin: 299.461px 91.05px;" id="el2autwsq253v" class="animable"></path><path d="M296.9,100.08c2-1.94,8.33-6.21,14.51-7,.14,0,.22.08.1.12a72.08,72.08,0,0,0-14.57,7S296.88,100.11,296.9,100.08Z" style="fill: rgb(38, 50, 56); transform-origin: 304.232px 96.64px;" id="el82abo7f9zox" class="animable"></path><path d="M261.64,168.51l4.18-26.95s-18.64,7.94-28.61,14.22c-10.39,6.54-11.28,13.84,5,13.94S261.64,168.51,261.64,168.51Z" style="fill: rgb(255, 0, 0); transform-origin: 247.734px 155.643px;" id="el41yhrtpt0ck" class="animable"></path><path d="M234.59,159.22a1.53,1.53,0,0,1-.67.44,1.42,1.42,0,0,1-1.36-.25l0,0c-.19.18-.37.37-.53.55a.34.34,0,0,1,.11.07,1.89,1.89,0,0,0,2.07.19,1.93,1.93,0,0,0,.71-.74c.13-.29.29-.54.42-.83C235,158.81,234.83,159,234.59,159.22ZM257.92,148a1.66,1.66,0,0,1-.67.43,1.39,1.39,0,0,1-1.36-.24,1.84,1.84,0,0,0-2.08-.11,1.76,1.76,0,0,0-.69.75c-.14.28-.29.53-.42.83.25-.19.48-.4.71-.6a1.69,1.69,0,0,1,.66-.46,1.4,1.4,0,0,1,1.36.18,1.87,1.87,0,0,0,2.07.19,1.77,1.77,0,0,0,.7-.74c.14-.28.3-.53.43-.83C258.37,147.58,258.15,147.79,257.92,148Zm4.35,13.43a1.88,1.88,0,0,0-1.59,1.34,1.69,1.69,0,0,0,0,1c.1.29.17.59.28.88.05-.31.05-.62.08-.93a1.63,1.63,0,0,1,.17-.78,1.37,1.37,0,0,1,1.14-.78,1,1,0,0,0,.25-.06l.14-.86A1.24,1.24,0,0,1,262.27,161.42ZM249.69,164a1.63,1.63,0,0,1-.78-.17,1.44,1.44,0,0,1-.78-1.14,1.88,1.88,0,0,0-1.39-1.55,1.83,1.83,0,0,0-1,.05c-.29.1-.59.17-.88.29.31,0,.62.05.92.07a1.82,1.82,0,0,1,.8.15,1.41,1.41,0,0,1,.82,1.09,1.88,1.88,0,0,0,1.34,1.59,1.77,1.77,0,0,0,1,0c.29-.1.59-.17.88-.3C250.31,164.05,250,164.05,249.69,164Z" style="fill: rgb(255, 255, 255); transform-origin: 247.385px 156.025px;" id="el7rs21vr7gzs" class="animable"></path><path d="M257.28,166c0-.65.14-1.3.23-1.95s.17-1.33.26-2c.17-1.35.37-2.69.57-4,.41-2.68.8-5.36,1.26-8,.12-.74.25-1.47.39-2.2s.36-1.53.51-2.3c0,0,.07,0,.07,0-.08.66-.11,1.34-.18,2s-.17,1.37-.27,2.05c-.19,1.34-.39,2.69-.61,4-.42,2.63-.83,5.28-1.3,7.91-.14.73-.28,1.46-.41,2.2s-.24,1.56-.45,2.31A0,0,0,0,1,257.28,166Z" style="fill: rgb(38, 50, 56); transform-origin: 258.925px 155.785px;" id="elxohr1zwhjo" class="animable"></path><path d="M247.41,169.7c-2.75.52-5.63.42-8.4.72a21.05,21.05,0,0,1,8.4-.72Z" style="fill: rgb(38, 50, 56); transform-origin: 243.21px 169.989px;" id="elj1bzs78f0r" class="animable"></path><path d="M240.65,171a5.12,5.12,0,0,1,2.1-1.1,2.1,2.1,0,0,1-2.1,1.1Z" style="fill: rgb(38, 50, 56); transform-origin: 241.7px 170.457px;" id="el5gqz7eu08b5" class="animable"></path></g><defs>     <filter id="active" height="200%">         <feMorphology in="SourceAlpha" result="DILATED" operator="dilate" radius="2"></feMorphology>                <feFlood flood-color="#32DFEC" flood-opacity="1" result="PINK"></feFlood>        <feComposite in="PINK" in2="DILATED" operator="in" result="OUTLINE"></feComposite>        <feMerge>            <feMergeNode in="OUTLINE"></feMergeNode>            <feMergeNode in="SourceGraphic"></feMergeNode>        </feMerge>    </filter>    <filter id="hover" height="200%">        <feMorphology in="SourceAlpha" result="DILATED" operator="dilate" radius="2"></feMorphology>                <feFlood flood-color="#ff0000" flood-opacity="0.5" result="PINK"></feFlood>        <feComposite in="PINK" in2="DILATED" operator="in" result="OUTLINE"></feComposite>        <feMerge>            <feMergeNode in="OUTLINE"></feMergeNode>            <feMergeNode in="SourceGraphic"></feMergeNode>        </feMerge>            <feColorMatrix type="matrix" values="0   0   0   0   0                0   1   0   0   0                0   0   0   0   0                0   0   0   1   0 "></feColorMatrix>    </filter></defs></svg>